<svg xmlns="http://www.w3.org/2000/svg" width="520" height="520" viewBox="0 0 520 520">
  <defs>
    <style>
      .cls-1 {
        fill-rule: evenodd;
      }
    </style>
  </defs>
  <path class="cls-1" d="M384.6,0.094v2c10.411,1.108,16.1,9.127,21.959,14.994l36.931,36.984,11.978,11L492.4,103.05c8.905,8.918,19.578,16.588,24.954,28.988,2.6,6,2,15.512,2,23.99V465.9c0,11.328,2.375,36.871-2,43.981-7.357,11.966-19.32,10-37.93,10H41.236c-12.637,0-26.608,1.242-33.937-4v-1l-2.994-2v-2l-2-1c-3.288-5.359-2-16.7-2-24.989V37.078c0-8.733-1.5-21.3,2-26.989l2-1v-2h1l2-3c7.032-5.022,19.748-4,31.941-4H384.6ZM48.223,48.074V471.9H471.434V149.031L384.6,63.067v77.967c-1.275,1.248-2.557,4.865-2.994,7l-4.991,4v1h-2l-1,2-6.987,1v1H196.946c-19.857,0-54.783,4.273-58.891-11-4.673-4.167-2.994-17.379-2.994-25.989V48.074H48.223Zm128.76,0v65.973H342.674V48.074H176.983ZM242.86,203.008H274.8v1h5.988v1l7.986,1v1h2.994v1h2.994v1h3v1h2.994v1h2v1h3v1l3.992,1v1l3.993,1q0.5,1,1,2l3.993,1q0.5,1,1,2c3.621,2.446,7.724,3.124,8.983,8,2.329,2.338,1.293,3.5,1,7-2.213,1.458-1.464,2.321-2.994,4l-11.978,11-3.992,5c-1.638,1.071-5.594,1.764-7.986,2v-1h-2.994v-1l-2.994-1q-0.5-1-1-2l-3.993-1v-1l-5.989-2v-1h-2.994v-1h-3c-13.9-5.418-29.8-4.28-42.92,1h-2.994v1l-5.989,2v1l-3.993,1v1l-2.994,1-1,2h-2q-3,3.5-5.989,7l-5.989,5v2l-3,2c-2.73,4.111-5.062,10.209-6.987,14.994,7.056-.146,13.412.111,17.967,2,1.092,2.077,1.608,1.77,2,5h1q-1,3-2,6l-2,1v2l-2,1v2l-2,1v2l-2,1v2l-2,1q-0.5,1.5-1,3h-1q-0.5,2-1,4l-2,1v2l-2,1v2h-1l-1,3-2,1v2l-2,1v2h-1q-0.5,1.5-1,3l-2,1v2l-2.994,2v2l-2,1v2h-1l-2.994,4h-2.994v1c-2.006-.574-0.864.12-2-1-6.947-.982-7.812-7.234-10.979-12l-2-1v-2h-1q-0.5-1.5-1-3l-2-1v-2h-1q-0.5-1.5-1-3l-2-1v-2l-2-1v-2l-2-1v-2l-2-1v-2l-2-1v-2l-2-1v-2c-3.529-5.3-8.509-8.433-8.983-16.993h1v-3c0.6-1.277.453,0.305,1-1,1.35-.523,2.265-0.372,3.993-1v-1c4.369-1.407,10.582.259,13.974-1,0.328-6.664,3.549-13.335,5.988-17.992v-2h1v-2h1v-2h1v-2h1v-2h1v-2h1v-2l2-1v-2l2-1v-2l2.994-2v-2l3.993-3v-2l7.985-7,3.992-5h2l2.994-4h2l1-2,2.994-1v-1h2q0.5-1,1-2l3.993-1q0.5-1,1-2h2v-1l3.993-1v-1h2.994v-1h2v-1H221.9v-1h2v-1l6.987-1v-1h3v-1C237.025,203.9,240.648,204.976,242.86,203.008ZM365.631,336.952c-0.253,7.074-3.744,12.918-5.989,17.992v3h-1v2h-1v2h-1q-0.5,2-1,4l-2,1q-0.5,2-1,4l-2,1v2l-2.994,2v2l-3,2v2l-7.985,7q-3.992,4.5-7.985,9h-2l-2,3-3,1q-0.5,1-1,2l-3.993,1q-0.5,1-1,2l-3.992,1q-0.5,1-1,2h-2v1h-2v1h-2.994v1l-3.993,1v1H296.76v1h-3v1h-2.994v1l-6.987,1v1c-6.3,2.1-36.629,1.928-42.92,0h-4.991c-17.607-6.01-33.8-12.563-45.914-23.99-2.676-2.525-12.375-8.147-8.984-12.994,0.592-4.922,3.343-5.344,5.989-8,5.157-5.17,11.06-15.131,19.963-15.993v1l4.991,1q0.5,1,1,2h2l3,4,2.994,1q0.5,1,1,2l3.993,1q0.5,1,1,2h2v1h2v1h3v1h2v1h2.994v1h3v1h2.994v1l20.961,1v-1H274.8v-1h3.992v-1h3c20.043-8.6,33.042-21.116,41.921-40.983h-2v-1H308.737s-0.189-.693-2-1c-1.581-2.748-2.466-1.8-2.994-6h-1q1-3,2-6l2-1v-2l2-1v-2l2-1v-2l2-1v-2h1l1-3,2-1v-2l2-1v-2l2-1v-2l2-1v-2l2-1v-2l2-1v-2l2-1v-2h1q0.5-1.5,1-3l2-1v-2l2-1c3.333-4.908,3.084-8.359,10.98-9v1l4.99,1q2.5,4.5,4.991,9l2,1v2l2,1v2l2,1v2l2,1v2l2,1v2l2,1v2l2,1v2h1q0.5,1.5,1,3l2,1v2l2,1v2l2,1v2l2,1v2l2,1a20.774,20.774,0,0,1,3.992,12h-1v2l-2,1v1Z"/>
</svg>
