<svg xmlns="http://www.w3.org/2000/svg" width="520" height="520" viewBox="0 0 520 520">
  <defs>
    <style>
      .cls-1 {
        fill-rule: evenodd;
      }
    </style>
  </defs>
  <path class="cls-1" d="M365.907,39.08v1.7c8.849,0.942,13.686,7.758,18.665,12.745q15.7,15.718,31.391,31.437l10.181,9.346,31.392,32.287c7.569,7.58,16.641,14.1,21.21,24.639,2.212,5.1,1.7,13.186,1.7,20.392V435.013c0,9.629,2.019,31.341-1.7,37.384-6.253,10.172-16.421,8.5-32.24,8.5H74.05c-10.741,0-22.617,1.056-28.846-3.4v-0.849l-2.545-1.7v-1.7l-1.7-.85c-2.8-4.555-1.7-14.191-1.7-21.241V70.516c0-7.423-1.276-18.1,1.7-22.94l1.7-.85v-1.7h0.848l1.7-2.549c5.977-4.269,16.786-3.4,27.149-3.4H365.907ZM79.989,79.863V440.111h359.73V165.676L365.907,92.607v66.272c-1.085,1.061-2.174,4.135-2.546,5.948l-4.242,3.4v0.85h-1.7q-0.423.849-.848,1.7l-5.939.85v0.85H206.4c-16.878,0-46.566,3.632-50.057-9.347-3.972-3.542-2.545-14.772-2.545-22.09V79.863H79.989Zm109.446,0v56.076H330.273V79.863H189.435Zm56,131.695H272.58v0.85h5.091v0.849l6.787,0.85v0.85H287v0.849h2.545v0.85h2.545v0.85h2.545v0.849h1.7v0.85h2.545v0.85l3.394,0.849v0.85l3.394,0.849,0.848,1.7,3.394,0.849q0.425,0.85.848,1.7c3.078,2.079,6.566,2.656,7.636,6.8,1.979,1.987,1.1,2.979.849,5.947-1.882,1.239-1.245,1.973-2.546,3.4l-10.181,9.346-3.393,4.248c-1.392.91-4.755,1.5-6.788,1.7v-0.849h-2.545v-0.85l-2.545-.849-0.849-1.7L287,253.19v-0.85l-5.091-1.7v-0.85h-2.545v-0.85h-2.545c-11.814-4.6-25.328-3.638-36.482.85H237.8v0.85l-5.09,1.7v0.85l-3.394.849v0.85l-2.545.85-0.849,1.7h-1.7l-5.091,5.947-5.09,4.249v1.7l-2.546,1.7c-2.321,3.5-4.3,8.678-5.939,12.745,6-.124,11.4.1,15.272,1.7,0.928,1.766,1.367,1.5,1.7,4.248h0.848q-0.848,2.549-1.7,5.1l-1.7.85v1.7l-1.7.85v1.7q-0.849.424-1.7,0.85v1.7l-1.7.849v1.7l-1.7.849q-0.425,1.275-.848,2.549h-0.849q-0.424,1.7-.848,3.4l-1.7.85v1.7l-1.7.849v1.7H206.4l-0.849,2.549-1.7.849v1.7l-1.7.849v1.7h-0.849q-0.424,1.273-.848,2.548l-1.7.85v1.7l-2.545,1.7v1.7q-0.849.425-1.7,0.85v1.7h-0.849q-1.272,1.7-2.545,3.4h-2.545v0.85c-1.7-.487-0.734.1-1.7-0.85-5.906-.835-6.64-6.149-9.333-10.195l-1.7-.85v-1.7h-0.849q-0.424-1.275-.848-2.549l-1.7-.85v-1.7h-0.848l-0.849-2.549-1.7-.85v-1.7l-1.7-.85v-1.7l-1.7-.849v-1.7l-1.7-.849v-1.7l-1.7-.849v-1.7l-1.7-.849v-1.7c-3-4.508-7.232-7.167-7.636-14.443H153.8v-2.549c0.513-1.086.385,0.258,0.848-.85,1.148-.444,1.926-0.316,3.394-0.85v-0.849c3.714-1.2,8.995.22,11.878-.85,0.279-5.665,3.016-11.335,5.09-15.293v-1.7h0.849v-1.7h0.848v-1.7h0.848v-1.7h0.849v-1.7h0.848v-1.7H180.1v-1.7q0.847-.426,1.7-0.85v-1.7l1.7-.85v-1.7l2.546-1.7v-1.7l3.393-2.549v-1.7l6.788-5.948,3.393-4.248h1.7l2.545-3.4h1.7l0.849-1.7,2.545-.849V226h1.7q0.425-.849.848-1.7l3.394-.85q0.424-.849.848-1.7h1.7V220.9l3.394-.849V219.2h2.545v-0.85h1.7v-0.849h2.545v-0.85h1.7v-0.85l5.939-.849v-0.85H237.8v-0.85C240.471,212.316,243.551,213.23,245.431,211.557ZM349.787,325.409c-0.216,6.013-3.183,10.98-5.091,15.294v2.549h-0.848v1.7H343v1.7h-0.848l-0.849,3.4-1.7.849-0.849,3.4-1.7.85v1.7l-2.545,1.7v1.7l-2.545,1.7v1.7l-6.788,5.948-6.787,7.646h-1.7q-0.847,1.275-1.7,2.549l-2.545.85q-0.425.849-.848,1.7l-3.394.85q-0.425.849-.848,1.7l-3.394.85q-0.424.849-.848,1.7h-1.7v0.85h-1.7v0.849h-2.545v0.85l-3.394.85v0.849h-2.545v0.85H288.7v0.85h-2.545v0.849l-5.939.85v0.85c-5.351,1.781-31.134,1.639-36.482,0h-4.242c-14.965-5.109-28.735-10.679-39.027-20.392-2.275-2.146-10.519-6.925-7.636-11.045,0.5-4.184,2.842-4.543,5.091-6.8,4.383-4.4,9.4-12.862,16.968-13.6v0.85l4.242,0.85q0.425,0.849.848,1.7h1.7q1.273,1.7,2.546,3.4l2.545,0.85q0.425,0.849.848,1.7l3.394,0.85q0.424,0.849.848,1.7h1.7v0.85h1.7v0.85H237.8v0.849h1.7v0.85h2.545v0.85h2.546v0.849h2.545v0.85l17.817,0.849v-0.849h7.635v-0.85h3.394v-0.849h2.545c17.037-7.311,28.086-17.949,35.634-34.836h-1.7V324.56H301.427s-0.161-.59-1.7-0.85c-1.344-2.335-2.1-1.527-2.545-5.1h-0.849q0.849-2.549,1.7-5.1l1.7-.849v-1.7l1.7-.849v-1.7l1.7-.849v-1.7l1.7-.849v-1.7h0.849q0.425-1.274.848-2.548l1.7-.85v-1.7l1.7-.85v-1.7l1.7-.85v-1.7l1.7-.85v-1.7l1.7-.85v-1.7l1.7-.85v-1.7q0.849-.425,1.7-0.85v-1.7h0.849q0.423-1.274.848-2.549l1.7-.849v-1.7l1.7-.849c2.833-4.172,2.621-7.106,9.332-7.647v0.849l4.242,0.85q2.121,3.824,4.242,7.647,0.849,0.425,1.7.85v1.7l1.7,0.849v1.7l1.7,0.849v1.7l1.7,0.849v1.7l1.7,0.849v1.7l1.7,0.85v1.7l1.7,0.85v1.7h0.849q0.425,1.275.848,2.549l1.7,0.85v1.7l1.7,0.85v1.7l1.7,0.85v1.7l1.7,0.85v1.7l1.7,0.85a17.646,17.646,0,0,1,3.394,10.195h-0.848v1.7l-1.7.849v0.85Z"/>
</svg>
