<svg xmlns="http://www.w3.org/2000/svg" width="520" height="520" viewBox="0 0 520 520">
  <defs>
    <style>
      .cls-1 {
        fill-rule: evenodd;
      }
    </style>
  </defs>
  <path class="cls-1" d="M447.09,458.911V416.273h15.555V150.756l-21.388-20.35-3.889-4.845h-1.945L399.452,88.737,367.369,57.728H100.983V74.2H58.205V44.161q0.486-7.752.972-15.5H60.15l0.972-3.876,1.944-.969V21.874h0.972l1.945-2.907c7.007-4.975,18.037-4.845,30.138-4.845h254.72l24.305,0.969C394.8,21.021,404.282,33.471,416.951,46.1l37.917,36.824,17.5,18.412,2.916,0.969,8.75,9.69c7.564,7.539,16.458,14.1,20.417,25.195,2.833,7.944.972,29.3,0.972,39.731V392.047c0,20.017,2.577,44.366-5.834,56.2l-1.944.969q-1.458,1.938-2.917,3.876h-1.944l-0.972,1.939h-1.945V456h-1.944v0.969h-2.917v0.969H482.09v0.969h-35ZM26.122,82.923H328.48l0.972,1.938H331.4V85.83h1.944V86.8h1.945v0.969h1.944l0.972,1.938h1.945l18.472,19.381,10.694,9.69,39.861,40.7c9.349,9.319,23.608,19.423,28.194,32.948,2.6,7.659.972,19.827,0.972,29.071V491.858c-0.691,2.151-2.332,4.077-2.917,6.783-2.606,1.507-4.877,4.659-7.777,5.815-6.923,2.757-19.552.969-28.194,0.969H43.622c-12.691,0-24.594.069-27.222-9.691-3.822-3.9-1.944-17.952-1.944-25.195V95.521c0.51-1.574,4.734-8.924,5.833-9.69h1.944V84.861C24.2,83.738,24.416,84.86,26.122,82.923Zm27.222,38.762V466.663H399.452V204.053L328.48,134.282V196.3h-0.972v2.907h-0.972v1.938h-0.972c-1.862,3.229-2.778,5.741-6.806,6.783-2.357,2.315-6.942,1.933-11.666,1.938H146.677c-3.444,0-8.8.676-10.695-.969-12.646-2.7-11.666-14.843-11.666-30.04V121.685H53.344Zm105.971,0v53.3H293.481v-53.3H159.315Zm60.277,134.7c13.119-.168,23.077,1.239,32.083,4.845h2.917V262.2l5.833,1.939V265.1l5.834,1.938v0.969l2.916,0.969,0.972,1.938h1.945l1.944,2.907h1.945l6.805,7.752,2.917,1.938v1.938l2.916,1.939v1.938l1.945,0.969v1.938l1.944,0.969v1.938h0.973v1.938h0.972v1.938h0.972v1.938H296.4l0.972,3.876h0.973v2.907c5.959,14.984,6.029,35.407,0,50.39v2.908h-0.973q-0.972,2.906-1.944,5.814h-0.972v1.938h-0.972q-0.486,1.938-.973,3.876l-1.944.969v1.938l-1.945.969v1.938l-2.916,1.938v1.938l-6.806,5.815-2.916,3.876h-1.945l-1.944,2.907h-1.945l-0.972,1.938h-1.944l-0.972,1.938h-1.945V399.8H262.37v0.969h-1.945v0.969h-1.944v0.969l-3.889.969v0.969h-2.917v0.969h-2.916v0.97H244.87v0.969h-4.861v0.969H233.2v0.969H219.592v-0.969h-7.777v-0.969h-3.889v-0.969h-3.889v-0.97H201.12v-0.969H198.2v-0.969h-1.945v-0.969h-2.916v-0.969H191.4v-0.969h-1.944l-0.972-1.938-3.889-.969-0.972-1.938h-1.945l-1.944-2.907h-1.945l-3.889-4.845-7.777-6.784v-1.938l-2.917-1.938v-1.938l-1.944-.969v-1.938l-1.945-.969-1.944-5.814H156.4v-1.938h-0.973v-2.907h-0.972V358.13h-0.972v-2.907H152.51v-2.907h-0.972v-4.845c-1.26-4.156-3.8-16.792-1.945-23.257h0.972V318.4h0.973v-4.845h0.972v-2.907h0.972V307.74h0.972v-2.907h0.972v-2.907H156.4v-1.938h0.972l1.944-5.814,1.945-.969v-1.938l1.944-.969V288.36l2.917-1.939v-1.938L173.9,277.7l3.889-4.845h1.945l1.944-2.907h1.945l0.972-1.938,3.889-.969,0.972-1.938H191.4v-0.969h1.945v-0.969l18.472-5.815h7.777v-0.969Zm0.973,34.886c-1.931,1.662-5.18.912-7.778,1.938v0.969H209.87v0.969l-5.833,1.938-1.944,2.907h-1.945l-4.861,5.814-2.916,1.938v1.938l-1.945.97q-0.972,2.905-1.944,5.814h-0.973v2.907h-0.972v2.907h-0.972v3.876c-2.961,9.419.59,19.012,3.889,25.195l0.972,3.876,1.945,0.969v1.938l4.861,3.877,2.916,3.876h1.945l0.972,1.938h1.944l0.972,1.938h1.945v0.969h1.944V371.7h2.917c3.614,1.423,12.952,4.814,19.444,2.907l14.583-4.845,0.973-1.938h1.944l1.944-2.907h1.945l0.972-1.938,3.889-2.907V358.13l2.917-1.938,0.972-3.876,1.944-.969q0.972-4.361,1.945-8.721h0.972L268.2,328.09h-0.972l-0.972-8.721h-0.973v-1.938h-0.972v-2.907l-1.944-.969-0.972-3.877q-1.46-.967-2.917-1.938V305.8l-1.945-.969-3.888-4.845H250.7l-0.972-1.938h-1.944l-0.973-1.938-3.888-.969v-0.969l-5.834-.969v-0.969Z"/>
</svg>
