<?xml version="1.0" encoding="UTF-8" standalone="no"?>
<!DOCTYPE svg PUBLIC "-//W3C//DTD SVG 1.1//EN" "http://www.w3.org/Graphics/SVG/1.1/DTD/svg11.dtd">
<svg version="1.1" xmlns="http://www.w3.org/2000/svg" xmlns:xlink="http://www.w3.org/1999/xlink" preserveAspectRatio="xMidYMid meet" viewBox="274.50000000000017 454.93750000000017 68.00000000000006 69.82999999999998" width="64" height="65.83"><defs><path d="M338.17 487.48C338.91 487.48 339.5 488.08 339.5 488.85C339.5 489.62 338.91 490.22 338.17 490.22C338.08 490.22 337.63 490.22 336.83 490.22L336.83 487.48C337.54 487.48 337.99 487.48 338.17 487.48Z" id="bsJO4ra5D"></path><path d="M308.83 487.48L336.83 487.48L336.83 490.22L308.83 490.22L308.83 487.48Z" id="c8W96LIYx"></path><path d="M307.5 521.77C308.25 521.77 308.83 521.16 308.83 520.4C308.83 520.3 308.83 519.85 308.83 519.02C323.23 519.02 331.23 519.02 332.83 519.02C335.05 519.02 336.83 517.19 336.83 514.91C336.83 513.26 336.83 505.04 336.83 490.22C337.63 490.22 338.08 490.22 338.17 490.22C338.91 490.22 339.5 489.62 339.5 488.85C339.5 491.46 339.5 512.3 339.5 514.91C339.5 518.7 336.51 521.77 332.83 521.77C327.77 521.77 310.03 521.77 307.5 521.77Z" id="cG5tho9Z"></path><path d="M339.5 488.85C339.5 488.08 338.91 487.48 338.17 487.48C338.08 487.48 337.63 487.48 336.83 487.48C336.83 472.67 336.83 464.44 336.83 462.79C336.83 460.52 335.05 458.68 332.83 458.68C331.23 458.68 323.23 458.68 308.83 458.68C308.83 457.86 308.83 457.4 308.83 457.31C308.83 456.54 308.25 455.94 307.5 455.94C310.03 455.94 330.3 455.94 332.83 455.94C336.51 455.94 339.5 459.01 339.5 462.79C339.5 468.01 339.5 486.25 339.5 488.85Z" id="a1rhPqxcl"></path><path d="M328.83 472.4C329.58 472.4 330.17 473 330.17 473.77C330.17 474.53 329.58 475.14 328.83 475.14C327.77 475.14 319.23 475.14 318.17 475.14C317.42 475.14 316.83 474.53 316.83 473.77C316.83 473 317.42 472.4 318.17 472.4C320.3 472.4 326.7 472.4 328.83 472.4Z" id="b1hoG9YPJ"></path><path d="M328.83 499.82C329.58 499.82 330.17 500.43 330.17 501.2C330.17 501.96 329.58 502.57 328.83 502.57C327.77 502.57 319.23 502.57 318.17 502.57C317.42 502.57 316.83 501.96 316.83 501.2C316.83 500.43 317.42 499.82 318.17 499.82C320.3 499.82 326.7 499.82 328.83 499.82Z" id="dJUhpjScz"></path><path d="M328.83 508.05C329.58 508.05 330.17 508.66 330.17 509.42C330.17 510.19 329.58 510.8 328.83 510.8C327.77 510.8 319.23 510.8 318.17 510.8C317.42 510.8 316.83 510.19 316.83 509.42C316.83 508.66 317.42 508.05 318.17 508.05C320.3 508.05 326.7 508.05 328.83 508.05Z" id="g4EeyYwhy"></path><path d="M308.83 519.02C308.83 519.85 308.83 520.3 308.83 520.4C308.83 521.16 308.25 521.77 307.5 521.77C306.75 521.77 306.17 521.16 306.17 520.4C306.17 520.3 306.17 519.85 306.17 519.02L308.83 519.02Z" id="a16hq4425b"></path><path d="M306.17 490.22L308.83 490.22L308.83 519.02L306.17 519.02L306.17 490.22Z" id="b3h0Rs7SwW"></path><path d="M306.17 487.48L308.83 487.48L308.83 490.22L306.17 490.22L306.17 487.48Z" id="c112FFa8Cj"></path><path d="M306.17 458.68L308.83 458.68L308.83 487.48L306.17 487.48L306.17 458.68Z" id="b1xt74dSmZ"></path><path d="M308.83 458.68L306.17 458.68C306.17 457.86 306.17 457.4 306.17 457.31C306.17 456.54 306.75 455.94 307.5 455.94C308.25 455.94 308.83 456.54 308.83 457.31C308.83 457.49 308.83 457.95 308.83 458.68Z" id="fwrwuoucY"></path><path d="M278.17 487.48L306.17 487.48L306.17 490.22L278.17 490.22L278.17 487.48Z" id="f1oK3N574J"></path><path d="M296.83 472.4C297.58 472.4 298.17 473 298.17 473.77C298.17 474.53 297.58 475.14 296.83 475.14C296.57 475.14 295.23 475.14 292.83 475.14L292.83 472.4C294.97 472.4 296.3 472.4 296.83 472.4Z" id="a2UP9rN9jD"></path><path d="M296.43 508.46C296.97 508.99 296.97 509.86 296.43 510.38C296.19 510.66 295.85 510.8 295.5 510.8C295.15 510.8 294.81 510.66 294.57 510.38C294.36 510.17 293.34 509.12 291.5 507.23L293.37 505.31C295 506.99 296.02 508.04 296.43 508.46Z" id="j4ah7ZB8YA"></path><path d="M294.57 500.24C295.07 499.69 295.93 499.69 296.43 500.24C296.97 500.76 296.97 501.63 296.43 502.16C296.23 502.37 295.21 503.42 293.37 505.31L291.5 503.39C293.14 501.71 294.16 500.66 294.57 500.24Z" id="bbwMAL0HR"></path><path d="M289.63 505.31L291.49 503.39L293.36 505.31L291.49 507.23L289.63 505.31Z" id="a4ffYfp8M4"></path><path d="M292.83 475.14C292.83 477.61 292.83 478.98 292.83 479.25C292.83 480.02 292.25 480.62 291.5 480.62C290.75 480.62 290.17 480.02 290.17 479.25C290.17 478.98 290.17 477.61 290.17 475.14L292.83 475.14Z" id="b43e7VbjZw"></path><path d="M290.17 472.4L292.83 472.4L292.83 475.14L290.17 475.14L290.17 472.4Z" id="e230S8e3a6"></path><path d="M292.83 472.4L290.17 472.4C290.17 469.93 290.17 468.55 290.17 468.28C290.17 467.51 290.75 466.91 291.5 466.91C292.25 466.91 292.83 467.51 292.83 468.28C292.83 468.83 292.83 470.2 292.83 472.4Z" id="aiCPw5JRE"></path><path d="M291.5 503.39L289.63 505.31C287.79 503.42 286.77 502.37 286.57 502.16C286.03 501.63 286.03 500.76 286.57 500.24C287.07 499.69 287.93 499.69 288.43 500.24C288.84 500.66 289.86 501.71 291.5 503.39Z" id="aqhrRkRaL"></path><path d="M290.17 472.4L290.17 475.14C287.77 475.14 286.43 475.14 286.17 475.14C285.42 475.14 284.83 474.53 284.83 473.77C284.83 473 285.42 472.4 286.17 472.4C286.7 472.4 288.03 472.4 290.17 472.4Z" id="eA4x539Gs"></path><path d="M288.43 510.38C288.19 510.66 287.85 510.8 287.5 510.8C287.15 510.8 286.81 510.66 286.57 510.38C286.03 509.86 286.03 508.99 286.57 508.46C286.77 508.25 287.79 507.2 289.63 505.31L291.5 507.23C289.86 508.91 288.84 509.96 288.43 510.38Z" id="a60cnFReIj"></path><path d="M278.17 487.48L278.17 490.22C277.37 490.22 276.92 490.22 276.83 490.22C276.09 490.22 275.5 489.62 275.5 488.85C275.5 488.08 276.09 487.48 276.83 487.48C277.01 487.48 277.46 487.48 278.17 487.48Z" id="awggLJ8xq"></path><path d="M275.5 462.79C275.5 459.01 278.49 455.94 282.17 455.94C284.7 455.94 304.97 455.94 307.5 455.94C306.75 455.94 306.17 456.54 306.17 457.31C306.17 457.4 306.17 457.86 306.17 458.68C291.77 458.68 283.77 458.68 282.17 458.68C279.95 458.68 278.17 460.52 278.17 462.79C278.17 464.44 278.17 472.67 278.17 487.48C277.37 487.48 276.92 487.48 276.83 487.48C276.09 487.48 275.5 488.08 275.5 488.85C275.5 483.64 275.5 468.01 275.5 462.79Z" id="b5hSqMR1WV"></path><path d="M278.17 514.91C278.17 517.19 279.95 519.02 282.17 519.02C283.77 519.02 291.77 519.02 306.17 519.02C306.17 519.85 306.17 520.3 306.17 520.4C306.17 521.16 306.75 521.77 307.5 521.77C304.97 521.77 284.7 521.77 282.17 521.77C278.49 521.77 275.5 518.7 275.5 514.91C275.5 512.3 275.5 491.46 275.5 488.85C275.5 489.62 276.09 490.22 276.83 490.22C276.92 490.22 277.37 490.22 278.17 490.22C278.17 503.39 278.17 511.62 278.17 514.91Z" id="b4UmzwVWx"></path></defs><g><g><use xlink:href="#bsJO4ra5D" opacity="1" fill="#ffffff" fill-opacity="1"></use><g><use xlink:href="#bsJO4ra5D" opacity="1" fill-opacity="0" stroke="#000000" stroke-width="1" stroke-opacity="0"></use></g></g><g><use xlink:href="#c8W96LIYx" opacity="1" fill="#ffffff" fill-opacity="1"></use><g><use xlink:href="#c8W96LIYx" opacity="1" fill-opacity="0" stroke="#000000" stroke-width="1" stroke-opacity="0"></use></g></g><g><use xlink:href="#cG5tho9Z" opacity="1" fill="#ffffff" fill-opacity="1"></use><g><use xlink:href="#cG5tho9Z" opacity="1" fill-opacity="0" stroke="#000000" stroke-width="1" stroke-opacity="0"></use></g></g><g><use xlink:href="#a1rhPqxcl" opacity="1" fill="#ffffff" fill-opacity="1"></use><g><use xlink:href="#a1rhPqxcl" opacity="1" fill-opacity="0" stroke="#000000" stroke-width="1" stroke-opacity="0"></use></g></g><g><use xlink:href="#b1hoG9YPJ" opacity="1" fill="#ffffff" fill-opacity="1"></use><g><use xlink:href="#b1hoG9YPJ" opacity="1" fill-opacity="0" stroke="#000000" stroke-width="1" stroke-opacity="0"></use></g></g><g><use xlink:href="#dJUhpjScz" opacity="1" fill="#ffffff" fill-opacity="1"></use><g><use xlink:href="#dJUhpjScz" opacity="1" fill-opacity="0" stroke="#000000" stroke-width="1" stroke-opacity="0"></use></g></g><g><use xlink:href="#g4EeyYwhy" opacity="1" fill="#ffffff" fill-opacity="1"></use><g><use xlink:href="#g4EeyYwhy" opacity="1" fill-opacity="0" stroke="#000000" stroke-width="1" stroke-opacity="0"></use></g></g><g><use xlink:href="#a16hq4425b" opacity="1" fill="#ffffff" fill-opacity="1"></use><g><use xlink:href="#a16hq4425b" opacity="1" fill-opacity="0" stroke="#000000" stroke-width="1" stroke-opacity="0"></use></g></g><g><use xlink:href="#b3h0Rs7SwW" opacity="1" fill="#ffffff" fill-opacity="1"></use><g><use xlink:href="#b3h0Rs7SwW" opacity="1" fill-opacity="0" stroke="#000000" stroke-width="1" stroke-opacity="0"></use></g></g><g><use xlink:href="#c112FFa8Cj" opacity="1" fill="#ffffff" fill-opacity="1"></use><g><use xlink:href="#c112FFa8Cj" opacity="1" fill-opacity="0" stroke="#000000" stroke-width="1" stroke-opacity="0"></use></g></g><g><use xlink:href="#b1xt74dSmZ" opacity="1" fill="#ffffff" fill-opacity="1"></use><g><use xlink:href="#b1xt74dSmZ" opacity="1" fill-opacity="0" stroke="#000000" stroke-width="1" stroke-opacity="0"></use></g></g><g><use xlink:href="#fwrwuoucY" opacity="1" fill="#ffffff" fill-opacity="1"></use><g><use xlink:href="#fwrwuoucY" opacity="1" fill-opacity="0" stroke="#000000" stroke-width="1" stroke-opacity="0"></use></g></g><g><use xlink:href="#f1oK3N574J" opacity="1" fill="#ffffff" fill-opacity="1"></use><g><use xlink:href="#f1oK3N574J" opacity="1" fill-opacity="0" stroke="#000000" stroke-width="1" stroke-opacity="0"></use></g></g><g><use xlink:href="#a2UP9rN9jD" opacity="1" fill="#ffffff" fill-opacity="1"></use><g><use xlink:href="#a2UP9rN9jD" opacity="1" fill-opacity="0" stroke="#000000" stroke-width="1" stroke-opacity="0"></use></g></g><g><use xlink:href="#j4ah7ZB8YA" opacity="1" fill="#ffffff" fill-opacity="1"></use><g><use xlink:href="#j4ah7ZB8YA" opacity="1" fill-opacity="0" stroke="#000000" stroke-width="1" stroke-opacity="0"></use></g></g><g><use xlink:href="#bbwMAL0HR" opacity="1" fill="#ffffff" fill-opacity="1"></use><g><use xlink:href="#bbwMAL0HR" opacity="1" fill-opacity="0" stroke="#000000" stroke-width="1" stroke-opacity="0"></use></g></g><g><use xlink:href="#a4ffYfp8M4" opacity="1" fill="#ffffff" fill-opacity="1"></use><g><use xlink:href="#a4ffYfp8M4" opacity="1" fill-opacity="0" stroke="#000000" stroke-width="1" stroke-opacity="0"></use></g></g><g><use xlink:href="#b43e7VbjZw" opacity="1" fill="#ffffff" fill-opacity="1"></use><g><use xlink:href="#b43e7VbjZw" opacity="1" fill-opacity="0" stroke="#000000" stroke-width="1" stroke-opacity="0"></use></g></g><g><use xlink:href="#e230S8e3a6" opacity="1" fill="#ffffff" fill-opacity="1"></use><g><use xlink:href="#e230S8e3a6" opacity="1" fill-opacity="0" stroke="#000000" stroke-width="1" stroke-opacity="0"></use></g></g><g><use xlink:href="#aiCPw5JRE" opacity="1" fill="#ffffff" fill-opacity="1"></use><g><use xlink:href="#aiCPw5JRE" opacity="1" fill-opacity="0" stroke="#000000" stroke-width="1" stroke-opacity="0"></use></g></g><g><use xlink:href="#aqhrRkRaL" opacity="1" fill="#ffffff" fill-opacity="1"></use><g><use xlink:href="#aqhrRkRaL" opacity="1" fill-opacity="0" stroke="#000000" stroke-width="1" stroke-opacity="0"></use></g></g><g><use xlink:href="#eA4x539Gs" opacity="1" fill="#ffffff" fill-opacity="1"></use><g><use xlink:href="#eA4x539Gs" opacity="1" fill-opacity="0" stroke="#000000" stroke-width="1" stroke-opacity="0"></use></g></g><g><use xlink:href="#a60cnFReIj" opacity="1" fill="#ffffff" fill-opacity="1"></use><g><use xlink:href="#a60cnFReIj" opacity="1" fill-opacity="0" stroke="#000000" stroke-width="1" stroke-opacity="0"></use></g></g><g><use xlink:href="#awggLJ8xq" opacity="1" fill="#ffffff" fill-opacity="1"></use><g><use xlink:href="#awggLJ8xq" opacity="1" fill-opacity="0" stroke="#000000" stroke-width="1" stroke-opacity="0"></use></g></g><g><use xlink:href="#b5hSqMR1WV" opacity="1" fill="#ffffff" fill-opacity="1"></use><g><use xlink:href="#b5hSqMR1WV" opacity="1" fill-opacity="0" stroke="#000000" stroke-width="1" stroke-opacity="0"></use></g></g><g><use xlink:href="#b4UmzwVWx" opacity="1" fill="#ffffff" fill-opacity="1"></use><g><use xlink:href="#b4UmzwVWx" opacity="1" fill-opacity="0" stroke="#000000" stroke-width="1" stroke-opacity="0"></use></g></g></g></svg>