<?xml version="1.0" encoding="UTF-8" standalone="no"?>
<!DOCTYPE svg PUBLIC "-//W3C//DTD SVG 1.1//EN" "http://www.w3.org/Graphics/SVG/1.1/DTD/svg11.dtd">
<svg version="1.1" xmlns="http://www.w3.org/2000/svg" xmlns:xlink="http://www.w3.org/1999/xlink" preserveAspectRatio="xMidYMid meet" viewBox="448.21937499999996 109 67.99999999999994 68" width="64" height="64"><defs><path d="M487.61 114.39C486.36 115.65 476.33 125.68 475.08 126.93C469.02 132.99 469.58 142.64 475.08 148.14C476 149.06 477.02 149.81 478.09 150.43C478.32 150.2 480.15 148.37 480.38 148.14C481.88 146.64 481.35 144.89 481.32 143.62C481 143.39 480.68 143.14 480.38 142.84C477.56 140.02 477.43 135.18 480.38 132.23C480.82 131.8 492.65 119.96 492.92 119.7C495.84 116.77 500.6 116.77 503.52 119.7C506.45 122.62 506.45 127.38 503.52 130.3C502.69 131.13 496.06 137.76 495.24 138.59C495.48 139.92 496.91 143.06 496.17 148.24C496.21 148.2 496.25 148.18 496.29 148.14C497.54 146.89 507.57 136.86 508.83 135.61C514.68 129.75 514.68 120.25 508.83 114.39C502.97 108.54 493.47 108.54 487.61 114.39Z" id="c1E7creHQ9"></path><path d="M485.32 132.6C485.09 132.83 483.26 134.66 483.03 134.89C481.53 136.39 482.06 138.14 482.09 139.41C482.41 139.64 482.74 139.89 483.03 140.19C485.85 143.01 485.98 147.85 483.03 150.79C482.59 151.23 469.78 164.05 469.52 164.3C466.6 167.23 461.84 167.23 458.92 164.3C455.99 161.38 455.99 156.62 458.92 153.7C459.84 152.77 467.25 145.36 468.17 144.44C467.93 143.11 466.5 139.97 467.24 134.79C467.2 134.83 467.16 134.85 467.12 134.89C465.77 136.24 454.96 147.04 453.61 148.39C447.75 154.25 447.75 163.75 453.61 169.61C459.47 175.46 468.97 175.46 474.83 169.61C476.18 168.26 486.98 157.45 488.33 156.1C494.28 150.15 493.96 140.51 488.33 134.89C487.41 133.96 486.39 133.21 485.32 132.6Z" id="b46hNdWyL"></path></defs><g><g><use xlink:href="#c1E7creHQ9" opacity="1" fill="#ffffff" fill-opacity="1"></use><g><use xlink:href="#c1E7creHQ9" opacity="1" fill-opacity="0" stroke="#000000" stroke-width="1" stroke-opacity="0"></use></g></g><g><use xlink:href="#b46hNdWyL" opacity="1" fill="#ffffff" fill-opacity="1"></use><g><use xlink:href="#b46hNdWyL" opacity="1" fill-opacity="0" stroke="#000000" stroke-width="1" stroke-opacity="0"></use></g></g></g></svg>