<svg xmlns="http://www.w3.org/2000/svg" xmlns:xlink="http://www.w3.org/1999/xlink" style="" version="1.1" xml:space="preserve" width="512" height="512"><rect id="backgroundrect" width="100%" height="100%" x="0" y="0" fill="none" stroke="none"/><g class="currentLayer" style=""><title>Layer 1</title><circle cx="249.93572998046875" cy="262.66667437553406" r="253.4399871826172" id="svg_2" class="" fill="#007090" fill-opacity="1" stroke="#ffffff" stroke-opacity="1"/><path fill="#ffffff" stroke="#ffffff" stroke-dashoffset="" fill-rule="nonzero" marker-start="" marker-mid="" marker-end="" id="svg_13" d="M185.20387832113963,271.2179618005527 C190.128335572376,267.01388950642234 191.64355318810016,264.3232832382019 191.64355318810016,264.3232832382019 L192.02235759206786,264.3232832382019 C192.02235759206786,264.3232832382019 191.83295539003427,268.0228668570001 191.83295539003427,271.72245047579605 L191.83295539003427,348.3626883972026 L162.30199539975717,348.3626883972026 L162.30199539975717,362.8106835145544 L239.16772236536815,362.8106835145544 L239.16772236536815,348.3626883972026 L210.0155667790592,348.3626883972026 L210.0155667790592,244.15774980085502 L193.36395652265088,244.15774980085502 L161.37076790677946,271.72245047579605 L172.7191165080339,282.14854976516585 L185.20387832113963,271.2179618005527 zM254.73026996050316,353.7439009336428 C254.73026996050316,356.61668366796636 255.1090743643731,359.6296021453714 255.6772809703254,362.8106835145544 L341.8079323155137,362.8106835145544 L341.8079323155137,348.3626883972026 L275.5645121770566,348.3626883972026 C275.92753306413016,321.3024763975053 339.72450809388874,315.26262586836856 339.72450809388874,276.248834979112 C339.72450809388874,255.7469757582537 322.14167034445535,242.11176795109395 297.51938408856984,242.11176795109395 C267.4202174923396,242.11176795109395 255.29847656640658,264.6315818731054 255.29847656640658,264.6315818731054 L269.1090537932529,272.85754999521794 C269.1090537932529,272.85754999521794 278.57916389170754,257.722889736518 296.19356867478126,257.722889736518 C310.19354810361096,257.722889736518 320.21608129112457,265.6125320750749 320.21608129112457,277.38393449853334 C320.21608129112457,305.35502882861374 254.73026996050316,311.40889293207675 254.73026996050316,353.7439009336428 zM189.02348939421108,107.062952290342 L157.45645573274282,107.062952290342 L157.45645573274282,153.79822262642324 L189.02348939421108,153.79822262642324 L189.02348939421108,107.062952290342 zM362.64217453211563,123.40277994004907 L362.64217453211563,167.82581051439763 L299.50810720922675,167.82581051439763 L299.50810720922675,123.40277994004907 L204.80700622492034,123.40277994004907 L204.80700622492034,167.79778336578974 L141.70450593572153,167.79778336578974 L141.70450593572153,123.40277994004907 L103.52417872220383,123.40277994004907 L103.52417872220383,427.06292174273904 L400.7751511951015,427.06292174273904 L400.7751511951015,123.40277994004907 L362.64217453211563,123.40277994004907 zM385.00741788123656,413.03533385476476 L119.3234790697561,413.03533385476476 L119.3234790697561,204.00885939226518 L385.00741788123656,204.00885939226518 L385.00741788123656,413.03533385476476 zM346.8586577013576,107.062952290342 L315.2916240399381,107.062952290342 L315.2916240399381,153.79822262642324 L346.8586577013576,153.79822262642324 L346.8586577013576,107.062952290342 z" style="color: rgb(122, 255, 250);" class=""/></g></svg>