<?xml version="1.0" encoding="UTF-8" standalone="no"?>
<!DOCTYPE svg PUBLIC "-//W3C//DTD SVG 1.1//EN" "http://www.w3.org/Graphics/SVG/1.1/DTD/svg11.dtd">
<svg version="1.1" xmlns="http://www.w3.org/2000/svg" xmlns:xlink="http://www.w3.org/1999/xlink" preserveAspectRatio="xMidYMid meet" viewBox="252.90625 279 68 68" width="64" height="64"><defs><path d="M307.41 285L307.41 280L302.41 280L302.41 285L269.41 285L269.41 280L264.41 280L264.41 285C262.61 285 261.61 285 261.41 285C257.27 285 253.91 288.36 253.91 292.5C253.91 296.9 253.91 332.1 253.91 336.5C253.91 340.64 257.27 344 261.41 344C266.31 344 305.51 344 310.41 344C314.54 344 317.91 340.64 317.91 336.5C317.91 332.1 317.91 296.9 317.91 292.5C317.91 288.36 314.54 285 310.41 285C310.01 285 309.01 285 307.41 285ZM310.41 339C305.51 339 266.31 339 261.41 339C260.03 339 258.91 337.88 258.91 336.5C258.91 334.3 258.91 323.3 258.91 303.5L312.91 303.5L312.91 336.5C312.16 338.17 311.33 339 310.41 339ZM258.91 298.5C258.91 294.9 258.91 292.9 258.91 292.5C258.91 291.12 260.03 290 261.41 290C261.61 290 262.61 290 264.41 290L264.41 295L269.41 295L269.41 290L302.41 290L302.41 295L307.41 295L307.41 290C309.21 290 310.21 290 310.41 290C311.78 290 312.91 291.12 312.91 292.5C312.91 292.9 312.91 294.9 312.91 298.5L258.91 298.5Z" id="a1PAU3Bg7N"></path><path d="M268.41 308.75C268.41 308.75 268.41 308.75 268.41 308.75C268.41 311.75 268.41 313.42 268.41 313.75C268.41 313.75 268.41 313.75 268.41 313.75C265.41 313.75 263.74 313.75 263.41 313.75C263.41 313.75 263.41 313.75 263.41 313.75C263.41 310.75 263.41 309.08 263.41 308.75C263.41 308.75 263.41 308.75 263.41 308.75C266.41 308.75 268.07 308.75 268.41 308.75Z" id="jPQ7e4aTA"></path><path d="M278.41 308.75C278.41 308.75 278.41 308.75 278.41 308.75C278.41 311.75 278.41 313.42 278.41 313.75C278.41 313.75 278.41 313.75 278.41 313.75C275.41 313.75 273.74 313.75 273.41 313.75C273.41 313.75 273.41 313.75 273.41 313.75C273.41 310.75 273.41 309.08 273.41 308.75C273.41 308.75 273.41 308.75 273.41 308.75C276.41 308.75 278.07 308.75 278.41 308.75Z" id="d8eOrk2Uw"></path><path d="M288.41 308.75C288.41 308.75 288.41 308.75 288.41 308.75C288.41 311.75 288.41 313.42 288.41 313.75C288.41 313.75 288.41 313.75 288.41 313.75C285.41 313.75 283.74 313.75 283.41 313.75C283.41 313.75 283.41 313.75 283.41 313.75C283.41 310.75 283.41 309.08 283.41 308.75C283.41 308.75 283.41 308.75 283.41 308.75C286.41 308.75 288.07 308.75 288.41 308.75Z" id="c2oMGNbie8"></path><path d="M298.41 308.75C298.41 308.75 298.41 308.75 298.41 308.75C298.41 311.75 298.41 313.42 298.41 313.75C298.41 313.75 298.41 313.75 298.41 313.75C295.41 313.75 293.74 313.75 293.41 313.75C293.41 313.75 293.41 313.75 293.41 313.75C293.41 310.75 293.41 309.08 293.41 308.75C293.41 308.75 293.41 308.75 293.41 308.75C296.41 308.75 298.07 308.75 298.41 308.75Z" id="a55UJCjcjo"></path><path d="M308.41 308.75C308.41 308.75 308.41 308.75 308.41 308.75C308.41 311.75 308.41 313.42 308.41 313.75C308.41 313.75 308.41 313.75 308.41 313.75C305.41 313.75 303.74 313.75 303.41 313.75C303.41 313.75 303.41 313.75 303.41 313.75C303.41 310.75 303.41 309.08 303.41 308.75C303.41 308.75 303.41 308.75 303.41 308.75C306.41 308.75 308.07 308.75 308.41 308.75Z" id="bhnKKuXQi"></path><path d="M268.41 318.75C268.41 318.75 268.41 318.75 268.41 318.75C268.41 321.75 268.41 323.42 268.41 323.75C268.41 323.75 268.41 323.75 268.41 323.75C265.41 323.75 263.74 323.75 263.41 323.75C263.41 323.75 263.41 323.75 263.41 323.75C263.41 320.75 263.41 319.08 263.41 318.75C263.41 318.75 263.41 318.75 263.41 318.75C266.41 318.75 268.07 318.75 268.41 318.75Z" id="c3Y7OLXG8W"></path><path d="M278.41 318.75C278.41 318.75 278.41 318.75 278.41 318.75C278.41 321.75 278.41 323.42 278.41 323.75C278.41 323.75 278.41 323.75 278.41 323.75C275.41 323.75 273.74 323.75 273.41 323.75C273.41 323.75 273.41 323.75 273.41 323.75C273.41 320.75 273.41 319.08 273.41 318.75C273.41 318.75 273.41 318.75 273.41 318.75C276.41 318.75 278.07 318.75 278.41 318.75Z" id="bfiIdFujI"></path><path d="M288.41 318.75C288.41 318.75 288.41 318.75 288.41 318.75C288.41 321.75 288.41 323.42 288.41 323.75C288.41 323.75 288.41 323.75 288.41 323.75C285.41 323.75 283.74 323.75 283.41 323.75C283.41 323.75 283.41 323.75 283.41 323.75C283.41 320.75 283.41 319.08 283.41 318.75C283.41 318.75 283.41 318.75 283.41 318.75C286.41 318.75 288.07 318.75 288.41 318.75Z" id="bNly4EKI7"></path><path d="M298.41 318.75C298.41 318.75 298.41 318.75 298.41 318.75C298.41 321.75 298.41 323.42 298.41 323.75C298.41 323.75 298.41 323.75 298.41 323.75C295.41 323.75 293.74 323.75 293.41 323.75C293.41 323.75 293.41 323.75 293.41 323.75C293.41 320.75 293.41 319.08 293.41 318.75C293.41 318.75 293.41 318.75 293.41 318.75C296.41 318.75 298.07 318.75 298.41 318.75Z" id="k69CtoeoO"></path><path d="M268.41 328.75C268.41 328.75 268.41 328.75 268.41 328.75C268.41 331.75 268.41 333.42 268.41 333.75C268.41 333.75 268.41 333.75 268.41 333.75C265.41 333.75 263.74 333.75 263.41 333.75C263.41 333.75 263.41 333.75 263.41 333.75C263.41 330.75 263.41 329.08 263.41 328.75C263.41 328.75 263.41 328.75 263.41 328.75C266.41 328.75 268.07 328.75 268.41 328.75Z" id="c24nZoQq9T"></path><path d="M278.41 328.75C278.41 328.75 278.41 328.75 278.41 328.75C278.41 331.75 278.41 333.42 278.41 333.75C278.41 333.75 278.41 333.75 278.41 333.75C275.41 333.75 273.74 333.75 273.41 333.75C273.41 333.75 273.41 333.75 273.41 333.75C273.41 330.75 273.41 329.08 273.41 328.75C273.41 328.75 273.41 328.75 273.41 328.75C276.41 328.75 278.07 328.75 278.41 328.75Z" id="aLrSt4e3Q"></path><path d="M288.41 328.75C288.41 328.75 288.41 328.75 288.41 328.75C288.41 331.75 288.41 333.42 288.41 333.75C288.41 333.75 288.41 333.75 288.41 333.75C285.41 333.75 283.74 333.75 283.41 333.75C283.41 333.75 283.41 333.75 283.41 333.75C283.41 330.75 283.41 329.08 283.41 328.75C283.41 328.75 283.41 328.75 283.41 328.75C286.41 328.75 288.07 328.75 288.41 328.75Z" id="ae18xW83c"></path><path d="M298.41 328.75C298.41 328.75 298.41 328.75 298.41 328.75C298.41 331.75 298.41 333.42 298.41 333.75C298.41 333.75 298.41 333.75 298.41 333.75C295.41 333.75 293.74 333.75 293.41 333.75C293.41 333.75 293.41 333.75 293.41 333.75C293.41 330.75 293.41 329.08 293.41 328.75C293.41 328.75 293.41 328.75 293.41 328.75C296.41 328.75 298.07 328.75 298.41 328.75Z" id="a1zL5ggHeO"></path><path d="M308.41 318.75C308.41 318.75 308.41 318.75 308.41 318.75C308.41 321.75 308.41 323.42 308.41 323.75C308.41 323.75 308.41 323.75 308.41 323.75C305.41 323.75 303.74 323.75 303.41 323.75C303.41 323.75 303.41 323.75 303.41 323.75C303.41 320.75 303.41 319.08 303.41 318.75C303.41 318.75 303.41 318.75 303.41 318.75C306.41 318.75 308.07 318.75 308.41 318.75Z" id="b1KQuRklD"></path></defs><g><g><use xlink:href="#a1PAU3Bg7N" opacity="1" fill="#ffffff" fill-opacity="1"></use><g><use xlink:href="#a1PAU3Bg7N" opacity="1" fill-opacity="0" stroke="#000000" stroke-width="1" stroke-opacity="0"></use></g></g><g><use xlink:href="#jPQ7e4aTA" opacity="1" fill="#ffffff" fill-opacity="1"></use><g><use xlink:href="#jPQ7e4aTA" opacity="1" fill-opacity="0" stroke="#000000" stroke-width="1" stroke-opacity="0"></use></g></g><g><use xlink:href="#d8eOrk2Uw" opacity="1" fill="#ffffff" fill-opacity="1"></use><g><use xlink:href="#d8eOrk2Uw" opacity="1" fill-opacity="0" stroke="#000000" stroke-width="1" stroke-opacity="0"></use></g></g><g><use xlink:href="#c2oMGNbie8" opacity="1" fill="#ffffff" fill-opacity="1"></use><g><use xlink:href="#c2oMGNbie8" opacity="1" fill-opacity="0" stroke="#000000" stroke-width="1" stroke-opacity="0"></use></g></g><g><use xlink:href="#a55UJCjcjo" opacity="1" fill="#ffffff" fill-opacity="1"></use><g><use xlink:href="#a55UJCjcjo" opacity="1" fill-opacity="0" stroke="#000000" stroke-width="1" stroke-opacity="0"></use></g></g><g><use xlink:href="#bhnKKuXQi" opacity="1" fill="#ffffff" fill-opacity="1"></use><g><use xlink:href="#bhnKKuXQi" opacity="1" fill-opacity="0" stroke="#000000" stroke-width="1" stroke-opacity="0"></use></g></g><g><use xlink:href="#c3Y7OLXG8W" opacity="1" fill="#ffffff" fill-opacity="1"></use><g><use xlink:href="#c3Y7OLXG8W" opacity="1" fill-opacity="0" stroke="#000000" stroke-width="1" stroke-opacity="0"></use></g></g><g><use xlink:href="#bfiIdFujI" opacity="1" fill="#ffffff" fill-opacity="1"></use><g><use xlink:href="#bfiIdFujI" opacity="1" fill-opacity="0" stroke="#000000" stroke-width="1" stroke-opacity="0"></use></g></g><g><use xlink:href="#bNly4EKI7" opacity="1" fill="#ffffff" fill-opacity="1"></use><g><use xlink:href="#bNly4EKI7" opacity="1" fill-opacity="0" stroke="#000000" stroke-width="1" stroke-opacity="0"></use></g></g><g><use xlink:href="#k69CtoeoO" opacity="1" fill="#ffffff" fill-opacity="1"></use><g><use xlink:href="#k69CtoeoO" opacity="1" fill-opacity="0" stroke="#000000" stroke-width="1" stroke-opacity="0"></use></g></g><g><use xlink:href="#c24nZoQq9T" opacity="1" fill="#ffffff" fill-opacity="1"></use><g><use xlink:href="#c24nZoQq9T" opacity="1" fill-opacity="0" stroke="#000000" stroke-width="1" stroke-opacity="0"></use></g></g><g><use xlink:href="#aLrSt4e3Q" opacity="1" fill="#ffffff" fill-opacity="1"></use><g><use xlink:href="#aLrSt4e3Q" opacity="1" fill-opacity="0" stroke="#000000" stroke-width="1" stroke-opacity="0"></use></g></g><g><use xlink:href="#ae18xW83c" opacity="1" fill="#ffffff" fill-opacity="1"></use><g><use xlink:href="#ae18xW83c" opacity="1" fill-opacity="0" stroke="#000000" stroke-width="1" stroke-opacity="0"></use></g></g><g><use xlink:href="#a1zL5ggHeO" opacity="1" fill="#ffffff" fill-opacity="1"></use><g><use xlink:href="#a1zL5ggHeO" opacity="1" fill-opacity="0" stroke="#000000" stroke-width="1" stroke-opacity="0"></use></g></g><g><use xlink:href="#b1KQuRklD" opacity="1" fill="#ffffff" fill-opacity="1"></use><g><use xlink:href="#b1KQuRklD" opacity="1" fill-opacity="0" stroke="#000000" stroke-width="1" stroke-opacity="0"></use></g></g></g></svg>