<?xml version="1.0" encoding="UTF-8" standalone="no"?>
<!DOCTYPE svg PUBLIC "-//W3C//DTD SVG 1.1//EN" "http://www.w3.org/Graphics/SVG/1.1/DTD/svg11.dtd">
<svg version="1.1" xmlns="http://www.w3.org/2000/svg" xmlns:xlink="http://www.w3.org/1999/xlink" preserveAspectRatio="xMidYMid meet" viewBox="-1.0000000000000373 -0.8359067360550396 68.00000000000001 67.96" width="64" height="63.96"><defs><path d="M56.2 25.07C55.79 23.74 55.27 22.44 54.65 21.19C55.12 20.73 58.84 17.01 59.3 16.54C59.65 16.19 59.85 15.72 59.85 15.22C59.85 14.72 59.65 14.24 59.3 13.89C58.47 13.06 51.86 6.44 51.03 5.62C50.3 4.88 49.11 4.88 48.37 5.62C47.92 6.07 44.32 9.67 43.87 10.12C42.61 9.45 41.28 8.88 39.92 8.43C39.92 7.79 39.92 2.68 39.92 2.04C39.92 1 39.08 0.16 38.05 0.16C36.88 0.16 27.52 0.16 26.35 0.16C25.31 0.16 24.47 1 24.47 2.04C24.47 2.67 24.47 7.67 24.47 8.3C23.04 8.74 21.66 9.31 20.33 10C19.93 9.59 16.68 6.35 16.28 5.94C15.55 5.21 14.36 5.21 13.63 5.94C12.8 6.77 6.18 13.39 5.35 14.22C4.62 14.95 4.62 16.14 5.35 16.87C5.76 17.28 9.03 20.55 9.44 20.95C8.76 22.28 8.2 23.65 7.77 25.07C7.18 25.07 2.47 25.07 1.88 25.07C0.84 25.07 0 25.91 0 26.95C0 28.12 0 37.48 0 38.65C0 39.68 0.84 40.52 1.88 40.52C2.49 40.52 7.36 40.52 7.97 40.52C8.42 41.85 8.97 43.13 9.63 44.37C9.19 44.8 5.71 48.29 5.27 48.72C4.92 49.07 4.72 49.55 4.72 50.05C4.72 50.55 4.92 51.02 5.27 51.38C6.1 52.2 12.72 58.82 13.54 59.65C14.28 60.38 15.46 60.38 16.2 59.65C16.65 59.2 20.25 55.6 20.7 55.15C21.84 55.72 23.02 56.2 24.23 56.59C24.23 57.15 24.23 61.68 24.23 62.25C24.23 63.28 25.07 64.12 26.11 64.12C27.28 64.12 36.64 64.12 37.81 64.12C38.85 64.12 39.69 63.28 39.69 62.25C39.69 61.68 39.69 57.17 39.69 56.6C41 56.18 42.28 55.65 43.51 55.02C43.97 55.49 47.7 59.22 48.17 59.69C48.9 60.42 50.09 60.42 50.82 59.69C51.65 58.86 58.27 52.24 59.1 51.42C59.45 51.06 59.65 50.59 59.65 50.09C59.65 49.59 59.45 49.12 59.1 48.76C58.63 48.3 54.93 44.59 54.46 44.13C55.07 42.97 55.58 41.76 55.99 40.52C56.61 40.52 61.51 40.52 62.12 40.52C63.16 40.52 64 39.68 64 38.65C64 37.48 64 28.12 64 26.95C64 25.91 63.16 25.07 62.12 25.07C62.12 25.07 56.79 25.07 56.2 25.07ZM60.25 36.77C56.86 36.77 54.98 36.77 54.6 36.77C53.75 36.77 53.01 37.34 52.79 38.15C52.28 40.03 51.52 41.82 50.52 43.49C50.08 44.23 50.2 45.17 50.81 45.78C51.1 46.07 52.53 47.5 55.12 50.09L49.5 55.71C46.9 53.11 45.45 51.67 45.16 51.38C44.56 50.77 43.62 50.65 42.89 51.09C41.15 52.11 39.28 52.87 37.34 53.37C36.51 53.58 35.93 54.33 35.93 55.19C35.93 55.53 35.93 57.26 35.93 60.37L27.99 60.37C27.99 57.25 27.99 55.52 27.99 55.18C27.99 54.32 27.41 53.57 26.58 53.36C24.73 52.88 22.95 52.16 21.29 51.21C20.55 50.79 19.63 50.91 19.03 51.51C18.75 51.79 17.37 53.17 14.87 55.67L9.25 50.05C11.67 47.62 13.02 46.28 13.29 46.01C13.9 45.4 14.02 44.44 13.57 43.7C12.51 41.97 11.7 40.11 11.17 38.15C10.95 37.34 10.21 36.77 9.36 36.77C8.99 36.77 7.12 36.77 3.75 36.77L3.75 28.82C7.02 28.82 8.84 28.82 9.2 28.82C10.06 28.82 10.82 28.23 11.02 27.39C11.52 25.35 12.31 23.39 13.38 21.57C13.81 20.84 13.69 19.9 13.08 19.3C12.83 19.05 11.58 17.8 9.33 15.54L14.95 9.92C17.19 12.16 18.43 13.4 18.68 13.65C19.29 14.26 20.23 14.38 20.97 13.94C22.79 12.85 24.75 12.05 26.8 11.54C27.63 11.33 28.22 10.58 28.22 9.72C28.22 9.33 28.22 7.4 28.22 3.92L36.17 3.92C36.17 7.46 36.17 9.44 36.17 9.83C36.17 10.68 36.74 11.42 37.56 11.64C39.55 12.17 41.45 12.99 43.21 14.06C43.95 14.51 44.9 14.4 45.51 13.79C45.79 13.51 47.19 12.11 49.7 9.6L55.32 15.22C52.74 17.8 51.3 19.24 51.01 19.52C50.42 20.12 50.29 21.05 50.71 21.78C51.72 23.54 52.47 25.42 52.94 27.39C53.15 28.23 53.9 28.82 54.77 28.82C55.13 28.82 56.96 28.82 60.25 28.82L60.25 36.77Z" id="a5VaqRQfl7"></path><path d="M19.85 30.51C20.18 30.43 22.84 29.76 23.17 29.68C24.17 29.42 24.78 28.4 24.53 27.4C24.31 26.53 23.53 25.97 22.67 25.98C24.71 22.96 28.16 21.03 31.94 21.03C36.8 21.03 41.07 24.14 42.56 28.76C42.88 29.75 43.93 30.29 44.92 29.97C45.9 29.66 46.45 28.6 46.13 27.61C44.14 21.43 38.44 17.28 31.94 17.28C26.56 17.28 21.68 20.2 19.06 24.69C18.47 23.95 17.4 23.75 16.58 24.27C15.71 24.83 15.45 25.99 16 26.86C16.18 27.15 17.62 29.42 17.8 29.7C17.8 29.71 17.81 29.71 17.81 29.71C18.2 30.32 19.02 30.74 19.85 30.51Z" id="bxg3raYfh"></path><path d="M46.22 34.62C45.83 34 45.03 33.54 44.15 33.77C43.82 33.86 41.16 34.53 40.83 34.61C39.83 34.87 39.22 35.89 39.47 36.89C39.69 37.74 40.45 38.31 41.29 38.31C41.3 38.31 41.31 38.31 41.32 38.31C39.29 41.33 35.84 43.26 32.06 43.26C27.2 43.26 22.93 40.15 21.44 35.52C21.12 34.54 20.07 34 19.08 34.31C18.09 34.63 17.55 35.69 17.87 36.67C19.86 42.86 25.56 47.01 32.06 47.01C37.44 47.01 42.32 44.09 44.94 39.6C45.53 40.34 46.6 40.54 47.42 40.02C48.29 39.46 48.55 38.3 48 37.43C47.64 36.86 46.57 35.18 46.22 34.62Z" id="cyrgSFSiE"></path></defs><g><g><use xlink:href="#a5VaqRQfl7" opacity="1" fill="#ffffff" fill-opacity="1"></use><g><use xlink:href="#a5VaqRQfl7" opacity="1" fill-opacity="0" stroke="#000000" stroke-width="1" stroke-opacity="0"></use></g></g><g><use xlink:href="#bxg3raYfh" opacity="1" fill="#ffffff" fill-opacity="1"></use><g><use xlink:href="#bxg3raYfh" opacity="1" fill-opacity="0" stroke="#000000" stroke-width="1" stroke-opacity="0"></use></g></g><g><use xlink:href="#cyrgSFSiE" opacity="1" fill="#ffffff" fill-opacity="1"></use><g><use xlink:href="#cyrgSFSiE" opacity="1" fill-opacity="0" stroke="#000000" stroke-width="1" stroke-opacity="0"></use></g></g></g></svg>