<svg xmlns="http://www.w3.org/2000/svg" xmlns:xlink="http://www.w3.org/1999/xlink" style="" version="1.1" xml:space="preserve" width="512" height="512"><rect id="backgroundrect" width="100%" height="100%" x="0" y="0" fill="none" stroke="none"/><g class="currentLayer" style=""><title>Layer 1</title><circle cx="253.26906299591064" cy="259.3333411216736" r="253.4399871826172" id="svg_2" class="" fill="#abecab" fill-opacity="1" stroke="#ffffff" stroke-opacity="1"/><path fill="#ffffff" stroke="#dadada" stroke-dashoffset="" fill-rule="nonzero" marker-start="" marker-mid="" marker-end="" id="svg_1" d="M309.5115742344318,176.49519162666255 C293.99843514585893,161.42680996599924 277.26666070441524,149.35609337006747 263.541446476316,147.7104908864665 C262.79425399726995,147.60374910374165 262.0203760725498,147.54148306382103 261.2020224049999,147.5236927667043 L170.8717887780727,147.5236927667043 C169.43077471144773,147.5236927667043 168.0075509418469,148.08408712598222 166.99350400595694,149.1248195075015 C165.98835221871212,150.1388664433414 165.39237726504632,151.5620902129467 165.39237726504632,153.01199942823172 L165.39237726504632,382.06207484849386 C165.39237726504632,383.50308891522513 165.95277162452578,384.8818369420262 166.99350400595694,385.9314644720992 C168.03423638738485,386.9633017050641 169.40408926577317,387.52369606434195 170.8717887780727,387.52369606434195 L334.22229693411475,387.52369606434195 C335.6633110008663,387.52369606434195 337.04205902763556,386.9721968536183 338.08279140919626,385.9314644720992 C339.12352379062315,384.8907320905808 339.7017084471323,383.5119840637788 339.7017084471323,382.06207484849386 L339.7017084471323,229.64370427271703 C339.38148309895314,211.9512537868547 325.52284164249795,192.65767656019472 309.5115742344318,176.49519162666255 zM328.7250951240628,376.5559778898505 L176.33340999392902,376.5559778898505 L176.33340999392902,158.4647254955172 L261.21091755351927,158.4647254955172 L261.21091755351927,158.48251579263365 C264.91129935457525,158.26013707863825 268.1046576874936,161.91604313679437 270.55082354162005,170.27748278321178 C272.77461068160915,178.2386407444179 273.335005040832,188.61927911394426 273.32610989231887,195.81545429900132 C273.34390018934425,201.09027739508733 273.08594088114523,204.6305465219641 273.08594088114523,204.6305465219641 L272.65007860176945,210.43018338309503 L278.4852960571561,210.4924494230157 C278.51198150282937,210.4924494230157 291.9703412740845,210.65256209709858 305.17074173713786,213.65022716182193 C317.85522358367837,216.38993291830042 327.77331422815917,221.8515541341486 328.6984096783905,228.03368238335787 C328.73399027257585,228.58518159408155 328.74288542122133,229.1366808047972 328.73399027257585,229.65259942127972 L328.73399027257585,376.5559778898505 L328.7250951240628,376.5559778898505 z" style="color: rgb(122, 255, 250);" class="" fill-opacity="1" stroke-opacity="1"/></g></svg>