<?xml version="1.0" encoding="UTF-8" standalone="no"?>
<!DOCTYPE svg PUBLIC "-//W3C//DTD SVG 1.1//EN" "http://www.w3.org/Graphics/SVG/1.1/DTD/svg11.dtd">
<svg version="1.1" xmlns="http://www.w3.org/2000/svg" xmlns:xlink="http://www.w3.org/1999/xlink" preserveAspectRatio="xMidYMid meet" viewBox="484.3298117480248 535.7169991404228 34.100951557538565 36.281255220904654" width="30.1" height="32.28"><defs><path d="M504.63 549.17C504.63 550.6 504.63 562.03 504.63 563.46C504.63 563.87 505.02 564.21 505.5 564.21C505.98 564.21 506.37 563.87 506.37 563.46C506.37 562.03 506.37 550.6 506.37 549.17C506.37 548.75 505.98 548.41 505.5 548.41C505.02 548.41 504.63 548.75 504.63 549.17Z" id="f2TdmQbsqq"></path><path d="M494.39 549.17C494.39 550.6 494.39 562.03 494.39 563.46C494.39 563.87 494.78 564.21 495.26 564.21C495.74 564.21 496.13 563.87 496.13 563.46C496.13 562.03 496.13 550.6 496.13 549.17C496.13 548.75 495.74 548.41 495.26 548.41C494.78 548.41 494.39 548.75 494.39 549.17Z" id="d162VIbGbM"></path><path d="M487.79 564.95C487.79 566.05 488.26 567.09 489.07 567.83C489.87 568.57 491 569 492.17 569C493.81 569 506.95 569 508.59 569C509.77 569 510.89 568.57 511.69 567.83C512.5 567.09 512.97 566.05 512.97 564.95C512.97 563.09 512.97 548.19 512.97 546.33C514.58 545.96 515.62 544.6 515.4 543.16C515.19 541.72 513.78 540.65 512.11 540.65C511.82 540.65 510.34 540.65 507.67 540.65C507.67 540.08 507.67 539.77 507.67 539.7C507.68 538.91 507.32 538.15 506.67 537.58C506.02 537.02 505.15 536.71 504.23 536.72C503.46 536.72 497.3 536.72 496.53 536.72C495.61 536.71 494.74 537.02 494.09 537.58C493.45 538.15 493.08 538.91 493.09 539.7C493.09 539.77 493.09 540.08 493.09 540.65C490.42 540.65 488.94 540.65 488.65 540.65C486.98 540.65 485.57 541.72 485.36 543.16C485.14 544.6 486.19 545.96 487.79 546.33C487.79 546.33 487.79 563.09 487.79 564.95ZM492.17 567.49C490.69 567.49 489.53 566.38 489.53 564.95C489.53 563.72 489.53 557.53 489.53 546.39L511.23 546.39C511.23 557.53 511.23 563.72 511.23 564.95C511.23 566.38 510.08 567.49 508.59 567.49C505.31 567.49 493.81 567.49 492.17 567.49ZM494.83 539.7C494.82 539.31 495 538.93 495.32 538.65C495.64 538.37 496.07 538.22 496.53 538.23C497.3 538.23 503.46 538.23 504.23 538.23C504.69 538.22 505.12 538.37 505.44 538.65C505.76 538.93 505.94 539.31 505.94 539.7C505.94 539.77 505.94 540.08 505.94 540.65L494.83 540.65C494.83 540.14 494.83 539.83 494.83 539.7ZM512.11 542.16C512.98 542.16 513.68 542.77 513.68 543.52C513.68 544.27 512.98 544.88 512.11 544.88C509.77 544.88 490.99 544.88 488.65 544.88C487.78 544.88 487.08 544.27 487.08 543.52C487.08 542.77 487.78 542.16 488.65 542.16C493.34 542.16 509.77 542.16 512.11 542.16Z" id="aapHhDIG1w"></path><path d="M499.51 549.17C499.51 550.6 499.51 562.03 499.51 563.46C499.51 563.87 499.9 564.21 500.38 564.21C500.86 564.21 501.25 563.87 501.25 563.46C501.25 562.03 501.25 550.6 501.25 549.17C501.25 548.75 500.86 548.41 500.38 548.41C499.9 548.41 499.51 548.75 499.51 549.17Z" id="b2lAGdlXa"></path></defs><g><g><use xlink:href="#f2TdmQbsqq" opacity="1" fill="#ffffff" fill-opacity="1"></use><g><use xlink:href="#f2TdmQbsqq" opacity="1" fill-opacity="0" stroke="#000000" stroke-width="1" stroke-opacity="0"></use></g></g><g><use xlink:href="#d162VIbGbM" opacity="1" fill="#ffffff" fill-opacity="1"></use><g><use xlink:href="#d162VIbGbM" opacity="1" fill-opacity="0" stroke="#000000" stroke-width="1" stroke-opacity="0"></use></g></g><g><use xlink:href="#aapHhDIG1w" opacity="1" fill="#ffffff" fill-opacity="1"></use><g><use xlink:href="#aapHhDIG1w" opacity="1" fill-opacity="0" stroke="#000000" stroke-width="1" stroke-opacity="0"></use></g></g><g><use xlink:href="#b2lAGdlXa" opacity="1" fill="#ffffff" fill-opacity="1"></use><g><use xlink:href="#b2lAGdlXa" opacity="1" fill-opacity="0" stroke="#000000" stroke-width="1" stroke-opacity="0"></use></g></g></g></svg>