<svg xmlns="http://www.w3.org/2000/svg" height="1792" width="1792"><rect id="backgroundrect" width="100%" height="100%" x="0" y="0" fill="none" stroke="none"/><g class="currentLayer" style=""><title>Layer 1</title><path fill="#13aaff" fill-opacity="1" stroke="none" stroke-opacity="1" stroke-width="1" stroke-dasharray="none" stroke-linejoin="miter" stroke-linecap="butt" stroke-dashoffset="" fill-rule="nonzero" opacity="1" marker-start="" marker-mid="" marker-end="" d="M-4,893 C-4,397.41988950276243 400.7762430939227,-4 900.5,-4 C1400.2237569060774,-4 1805,397.41988950276243 1805,893 C1805,1388.5801104972375 1400.2237569060774,1790 900.5,1790 C400.7762430939227,1790 -4,1388.5801104972375 -4,893 Z" id="svg_2" class=""/><path d="M1372.0068983877163,546.3197771766565 q11.333501671290605,27.333739324877342 -9.333471964592263,46.667359822961316 l-328.67154846742756,328.67154846742756 v494.67401412338995 q0,28.00041589377679 -26.000386187078448,39.333917565067395 q-8.666795395692816,3.333382844497237 -16.666914222486184,3.333382844497237 q-18.00026736028508,0 -30.000445600475132,-12.6668548090895 l-170.66920163825853,-170.66920163825853 q-12.6668548090895,-12.6668548090895 -12.6668548090895,-30.000445600475132 v-324.0048124851314 l-328.67154846742756,-328.67154846742756 q-20.66697363588287,-19.333620498083974 -9.333471964592263,-46.667359822961316 q11.333501671290605,-26.000386187078448 39.333917565067395,-26.000386187078448 h853.3460081912926 q28.00041589377679,0 39.333917565067395,26.000386187078448 z" id="svg_1" class="" fill="#ffffff" fill-opacity="1"/></g></svg>