<?xml version="1.0" encoding="UTF-8" standalone="no"?>
<!DOCTYPE svg PUBLIC "-//W3C//DTD SVG 1.1//EN" "http://www.w3.org/Graphics/SVG/1.1/DTD/svg11.dtd">
<svg version="1.1" xmlns="http://www.w3.org/2000/svg" xmlns:xlink="http://www.w3.org/1999/xlink" preserveAspectRatio="xMidYMid meet" viewBox="311.4765390857955 179.38184872798843 67.99999999999994 64.64999999999984" width="64" height="60.65"><defs><path d="M315.23 180.38C314.2 180.38 313.26 180.91 312.78 181.76C312.31 182.62 312.39 183.66 313 184.44C315.14 187.23 332.29 209.56 334.43 212.35C334.43 212.36 334.44 212.37 334.45 212.38C335.23 213.35 335.65 214.52 335.65 215.73C335.65 218.01 335.65 236.21 335.65 238.49C335.65 239.16 335.93 239.81 336.45 240.29C336.96 240.76 337.66 241.03 338.39 241.03C338.76 241.03 339.13 240.96 339.47 240.83C340.67 240.41 350.3 237.01 351.51 236.59C352.59 236.28 353.3 235.34 353.3 234.21C353.3 232.36 353.3 217.58 353.3 215.73C353.3 214.53 353.73 213.35 354.5 212.38C354.51 212.37 354.52 212.36 354.53 212.35C356.67 209.56 373.81 187.23 375.95 184.44C376.56 183.66 376.65 182.62 376.17 181.76C375.7 180.91 374.75 180.38 373.72 180.38C373.72 180.38 321.08 180.38 315.23 180.38ZM351.82 210.55C350.62 212.05 349.98 213.87 349.97 215.73C349.97 216.94 349.97 222.97 349.97 233.83L338.98 237.71C338.98 224.52 338.98 217.2 338.98 215.73C338.98 213.87 338.33 212.05 337.13 210.55C335.75 208.75 328.81 199.72 316.33 183.46L372.62 183.46C361.53 197.91 354.59 206.94 351.82 210.55Z" id="acKiI1AR"></path></defs><g><g><use xlink:href="#acKiI1AR" opacity="1" fill="#ffffff" fill-opacity="1"></use><g><use xlink:href="#acKiI1AR" opacity="1" fill-opacity="0" stroke="#000000" stroke-width="1" stroke-opacity="0"></use></g></g></g></svg>