<?xml version="1.0" encoding="UTF-8" standalone="no"?>
<!DOCTYPE svg PUBLIC "-//W3C//DTD SVG 1.1//EN" "http://www.w3.org/Graphics/SVG/1.1/DTD/svg11.dtd">
<svg version="1.1" xmlns="http://www.w3.org/2000/svg" xmlns:xlink="http://www.w3.org/1999/xlink" preserveAspectRatio="xMidYMid meet" viewBox="417.7082659422592 149 46.58346811548165 50.00982941257456" width="42.58" height="46.01"><defs><path d="M437.76 158.21C438.52 157.43 444.62 151.19 445.39 150.41C445.93 149.86 446.87 149.86 447.41 150.41C447.96 150.98 447.96 151.91 447.41 152.48C447.06 152.83 445.33 154.6 442.22 157.78C446.74 157.78 449.25 157.78 449.75 157.78C456.12 157.78 461.29 163.07 461.29 169.57C461.29 175.71 455.27 180.57 451.11 180.97C450.53 180.97 449.83 180.47 450 179.3C450.21 178.55 451.66 178.21 451.75 178.19C455.57 177.27 458.43 173.76 458.43 169.57C458.43 164.68 454.54 160.7 449.75 160.7C449.25 160.7 446.74 160.7 442.22 160.7C445.33 163.88 447.06 165.65 447.41 166.01C447.96 166.57 447.96 167.5 447.41 168.07C446.87 168.62 445.93 168.62 445.39 168.07C444.62 167.29 438.52 161.05 437.76 160.27C437.49 160 437.34 159.63 437.34 159.24C437.34 158.85 437.49 158.48 437.76 158.21ZM433.49 180.92L437.78 185.31C433.26 185.31 430.75 185.31 430.25 185.31C425.46 185.31 421.57 181.33 421.57 176.44C421.57 175.01 421.91 173.66 422.51 172.47C422.41 172.21 422.32 171.95 422.24 171.7C421.98 170.86 421.83 170 421.75 169.12C419.98 171.09 418.71 173.63 418.71 176.44C418.71 182.94 423.88 188.23 430.25 188.23C430.75 188.23 433.26 188.23 437.78 188.23C434.67 191.41 432.94 193.18 432.59 193.53C432.04 194.1 432.04 195.03 432.59 195.6C433.13 196.15 434.07 196.15 434.61 195.6C435.38 194.82 441.48 188.58 442.25 187.8C442.51 187.52 442.66 187.16 442.66 186.77C442.66 186.38 442.51 186.01 442.25 185.73C441.93 185.41 440.36 183.81 437.53 180.92L433.49 180.92ZM446.06 170.07C444.84 169.1 443.73 167.96 442.75 166.76C443.13 169.23 442.41 171.84 440.55 173.74C437.46 176.9 432.43 176.9 429.34 173.74C426.25 170.58 426.25 165.45 429.34 162.29C431.16 160.43 433.65 159.7 436.02 160.03C436.18 158.77 436.57 157.55 437.56 156.86C434.09 155.93 429.6 157.13 426.95 159.84C422.54 164.35 422.54 171.68 426.95 176.19C430.95 180.28 437.22 180.64 441.65 177.31C443.07 178.76 454.44 190.38 455.86 191.83C456.52 192.5 457.59 192.5 458.26 191.83C458.92 191.15 458.92 190.06 458.26 189.38C457.31 188.41 452.57 183.57 444.04 174.86C445.18 172.8 445.85 171.21 446.06 170.07Z" id="a7cqmPz5jT"></path></defs><g><g><use xlink:href="#a7cqmPz5jT" opacity="1" fill="#ffffff" fill-opacity="1"></use><g><use xlink:href="#a7cqmPz5jT" opacity="1" fill-opacity="0" stroke="#000000" stroke-width="1" stroke-opacity="0"></use></g></g></g></svg>