<svg xmlns="http://www.w3.org/2000/svg" xmlns:xlink="http://www.w3.org/1999/xlink" style="" version="1.1" xml:space="preserve" width="512" height="512"><rect id="backgroundrect" width="100%" height="100%" x="0" y="0" fill="none" stroke="none"/><g class="currentLayer" style=""><title>Layer 1</title><circle cx="249.93572998046875" cy="259.3333435058594" r="253.4399871826172" id="svg_2" class="selected" fill="#087214" stroke="#ffffff" stroke-opacity="1" fill-opacity="1"/><path fill="#ffffff" stroke="#ffffff" stroke-dashoffset="" fill-rule="nonzero" marker-start="" marker-mid="" marker-end="" id="svg_18" d="M201.87730588950166,270.5917209463486 L199.48690176295804,258.03706688659634 L190.07912314605232,267.4150459355461 L176.3342994183485,265.62307541664137 L183.14458444230672,276.7278624201757 L177.03840360408577,288.17475288641776 L190.6589736520031,285.66056394625923 L200.6347690910299,294.5281029080007 L202.2382332452645,281.8648445743819 L214.50976334052484,275.897039725054 L201.87730588950166,270.5917209463486 zM220.65736207196375,344.1656862817708 L219.5804968465876,337.377919164698 L214.36184229303643,342.29226255744044 L206.99537413073693,341.1301968270068 L210.47447716644126,347.201175736515 L206.99537413073693,353.27215464604274 L214.36184229303643,352.1100889155894 L219.5804968465876,357.02443230835127 L220.65736207196375,350.2366651912788 L227.36114394173984,347.1957455228262 L220.65736207196375,344.1656862817708 zM94.6463801825198,287.0072569422766 L100.25554630122429,284.9872174482398 L105.24936086262875,288.0770090399273 L104.88251666499764,282.5599119271537 L109.62782386678043,279.1551679412405 L103.79973459779916,277.76503323565544 L101.73475677557809,272.56831873083735 L98.49824425767605,277.23287229369527 L92.47489920616414,277.4283599866563 L96.30309591375271,281.6965079498822 L94.6463801825198,287.0072569422766 zM127.30143061434245,302.39105233641277 L133.3425261916434,296.4395381281705 L142.10536904172403,297.6287549270852 L137.80382498231882,290.515174988389 L141.7503585279203,283.23325842517283 L133.05260093862245,284.79172975525785 L126.7274969503531,279.10086580429663 L125.65063172497702,287.1755935667758 L117.79306568521571,290.938731656503 L125.82813698190193,294.3706267108986 L127.30143061434245,302.39105233641277 zM167.5063713073476,314.4244058815801 C164.02726827164406,312.426087242297 160.57183260359994,311.0685338188814 157.49507481692535,310.46578009889197 C154.5839886033914,309.9824910801676 151.34747608548992,309.6566782585444 149.06357511308062,312.49668002032575 L80.69446698836629,412.53207668495804 L120.21897086315141,412.53207668495804 L177.42891516932798,328.81990238347294 C179.22171826427126,325.69209929592694 177.49991727206975,323.16704992837055 175.75444891239755,320.96238316874883 C173.83147529575467,318.6979840584947 170.9854743430028,316.428154734532 167.5063713073476,314.4244058815801 zM146.08148679680409,364.46382506867127 C144.57860895483964,362.31346044599337 141.7030237926524,359.81013193321013 137.95766287158665,357.65433709682384 C134.2182187924837,355.50397247412513 130.51427576463306,354.21158161503183 127.74519375667762,353.90748964820233 L153.90355178517353,315.61362268049555 C154.28222966663452,315.543029902467 155.45376436227184,315.4995881929193 157.1163969354643,315.9720167842685 C159.1636242319882,316.4715964440789 161.76111782493507,317.5196276869556 164.36452825984162,319.02379688011837 C167.34661657612088,320.7234537662201 169.73702070266074,322.700051550731 171.06831012961754,324.29110416296464 C171.73691326400836,325.0784851485392 172.1215079873828,325.76269207393455 172.22209429960714,326.11022575033155 C172.23392798338784,326.1428070325019 172.24576166721755,326.169958100964 172.24576166721755,326.1916789557373 L146.08148679680409,364.46382506867127 z" style="color: rgb(0, 112, 144);" class=""/><path fill="#ffffff" stroke="#ffffff" stroke-dashoffset="" fill-rule="nonzero" marker-start="" marker-mid="" marker-end="" id="svg_20" d="M309.32315555339534,173.4848610773133 L309.3211355534405,173.4733010775717 L309.3131855536182,173.4819360773787 L309.3015705538778,173.48028607741557 L309.3073255537492,173.49051107718702 L309.3021655538645,173.50105107695143 L309.31367555360725,173.49873607700317 L309.3221055534188,173.50690107682067 L309.32346055338854,173.4952410770813 L309.33383055315676,173.48974607720413 L309.32315555339534,173.4848610773133 zM309.33902555304064,173.55260607579908 L309.33811555306096,173.54635607593877 L309.3337055531595,173.55088107583765 L309.32748055329864,173.54981107586156 L309.33042055323295,173.55540107573663 L309.32748055329864,173.56099107561167 L309.3337055531595,173.55992107563557 L309.33811555306096,173.56444607553445 L309.33902555304064,173.55819607567415 L309.344690552914,173.55539607573672 L309.33902555304064,173.55260607579908 zM309.23254055542077,173.49997607697546 L309.2372805553148,173.49811607701704 L309.24150055522045,173.50096107695344 L309.2411905552274,173.495881077067 L309.2452005551378,173.49274607713707 L309.2402755552479,173.49146607716568 L309.23853055528684,173.48668107727264 L309.235795555348,173.4909760771766 L309.2307055554618,173.4911560771726 L309.23394055538944,173.49508607708475 L309.23254055542077,173.49997607697546 zM309.2601355548039,173.51414107665886 L309.26524055468985,173.50866107678132 L309.27264555452433,173.50975607675687 L309.2690105546056,173.50320607690327 L309.27234555453106,173.49650107705313 L309.2649955546953,173.49793607702105 L309.2596505548148,173.4926960771382 L309.25874055483513,173.500131076972 L309.25210055498354,173.50359607689455 L309.2588905548318,173.5067560768239 L309.2601355548039,173.51414107665886 zM309.29411055404455,173.52522107641119 C309.29117055411024,173.52338107645232 309.28825055417553,173.52213107648026 309.28565055423365,173.52157607649266 C309.28319055428864,173.5211310765026 309.28045555434977,173.52083107650932 309.2785255543929,173.52344607645085 L309.2207505556843,173.61555607439203 L309.2541505549377,173.61555607439203 L309.3024955538571,173.5384760761149 C309.3040105538233,173.5355960761793 309.30255555385577,173.53327107623124 309.30108055388877,173.53124107627664 C309.2994555539251,173.52915607632323 309.2970505539788,173.52706607636995 309.29411055404455,173.52522107641119 zM309.2760055544492,173.57129607538133 C309.2747355544776,173.56931607542558 309.2723055545319,173.5670110754771 309.26914055460264,173.56502607552147 C309.2659805546733,173.56304607556572 309.26285055474324,173.56185607559235 309.2605105547956,173.5615760755986 L309.28261555430146,173.5263160763867 C309.28293555429434,173.52625107638818 309.2839255542722,173.52621107638907 309.2853305542408,173.52664607637934 C309.2870605542021,173.52710607636905 309.28925555415304,173.5280710763475 309.2914555541039,173.52945607631654 C309.29397555404756,173.53102107628155 309.2959955540024,173.53284107624086 309.29712055397727,173.5343060762081 C309.29768555396464,173.53503107619193 309.2980105539574,173.53566107617783 309.2980955539555,173.53598107617069 C309.2981055539552,173.53601107617 309.29811555395503,173.53603607616947 309.29811555395503,173.53605607616902 L309.2760055544492,173.57129607538133 z" style="color: rgb(0, 112, 144);"/><path fill="#ffffff" stroke="#ffffff" stroke-dashoffset="" fill-rule="nonzero" marker-start="" marker-mid="" marker-end="" id="svg_23" d="M382.61483841657036,173.40236693310595 C388.636440479008,163.47299603224133 392.16785918853384,151.85632205344766 392.1741316906815,139.3991327867841 C392.16785918853384,103.06252784128719 362.74355161052335,73.63194776110777 326.42576417144556,73.61940275680891 C290.1017042302324,73.63194776110777 260.6648516479147,103.06252784128719 260.6648516479147,139.39286028463687 C260.6648516479147,175.70437522154361 290.1017042302324,205.1349553017253 326.42576417144556,205.1349553017253 C338.8892259402669,205.1349553017253 350.5058999190494,201.60353659217623 360.4352708199255,195.58193452976138 L405.14566613351457,240.28605734123778 L427.3189612280112,218.10021724243308 L382.61483841657036,173.40236693310595 zM326.42576417144556,180.06376421466717 C303.95766147597783,180.01358419748368 285.7924952542912,161.8484179757864 285.75486024140605,139.39286028463687 C285.7924952542912,116.92475758914617 303.9639339781253,98.75959136744643 326.42576417144556,98.70941135026831 C348.8750493604715,98.75959136744643 367.0590330886116,116.92475758914617 367.0966681014859,139.39286028463687 C367.0527605864528,161.8484179757864 348.8750493604715,180.01358419748368 326.42576417144556,180.06376421466717 zM338.96449596604987,109.0715848994059 L313.8744873725586,109.0715848994059 L313.8744873725586,126.84158348576167 L296.10448878621594,126.84158348576167 L296.10448878621594,151.93786458136438 L313.8744873725586,151.93786458136438 L313.8744873725586,169.70786316771932 L338.96449596604987,169.70786316771932 L338.96449596604987,151.93159207926266 L356.72822205023294,151.93159207926266 L356.72822205023294,126.84785598790785 L338.95822346390173,126.84785598790785 L338.95822346390173,109.0715848994059 L338.96449596604987,109.0715848994059 z" style="color: rgb(0, 112, 144);" class=""/><path fill="#ffffff" fill-opacity="1" stroke="#ffffff" stroke-opacity="1" stroke-width="1" stroke-dasharray="none" stroke-linejoin="miter" stroke-linecap="butt" stroke-dashoffset="" fill-rule="nonzero" opacity="1" marker-start="" marker-mid="" marker-end="" d="M78.31952092971466,72.7295676704248 L425.99999715223316,444.3332821845394 " id="svg_30" class=""/></g></svg>