<svg xmlns="http://www.w3.org/2000/svg" height="1792" width="1792" style=""><rect id="backgroundrect" width="100%" height="100%" x="0" y="0" fill="none" stroke="none"/><g class="currentLayer" style=""><title>Layer 1</title><path fill="#f28500" fill-opacity="1" stroke="none" stroke-opacity="1" stroke-width="1" stroke-dasharray="none" stroke-linejoin="miter" stroke-linecap="butt" stroke-dashoffset="" fill-rule="nonzero" opacity="1" marker-start="" marker-mid="" marker-end="" d="M-4,893 C-4,397.41988950276243 400.7762430939227,-4 900.5,-4 C1400.2237569060774,-4 1805,397.41988950276243 1805,893 C1805,1388.5801104972375 1400.2237569060774,1790 900.5,1790 C400.7762430939227,1790 -4,1388.5801104972375 -4,893 Z" id="svg_2" class="selected"/><path fill="#ffffff" stroke-dashoffset="" fill-rule="nonzero" marker-start="" marker-mid="" marker-end="" id="svg_6" d="M895.1988440761725,459.035794217775 L674.7889709779528,459.035794217775 L494.481979335216,639.3427858608554 L494.481979335216,859.7526589590775 L1038.765080021019,1404.035759644536 L1439.48194476163,1003.2842338134141 L895.1988440761725,459.035794217775 zM625.9514947719332,668.1461518843887 C604.4962798875662,646.6909370003663 604.4962798875662,611.9258634483499 625.9514947719332,590.5053096544926 C647.4067096556107,569.0500947704691 682.1717832079704,569.0500947704691 703.6269980916485,590.5053096544926 C725.1168740661801,611.9951856286792 725.0822129760163,646.6909370003663 703.6269980916485,668.1808129745523 C682.1717832079704,689.6360278589201 647.4067096556107,689.6360278589201 625.9514947719332,668.1461518843887 z" style="color: rgb(19, 170, 255);" class=""/></g></svg>