<?xml version="1.0" encoding="UTF-8" standalone="no"?>
<!DOCTYPE svg PUBLIC "-//W3C//DTD SVG 1.1//EN" "http://www.w3.org/Graphics/SVG/1.1/DTD/svg11.dtd">
<svg version="1.1" xmlns="http://www.w3.org/2000/svg" xmlns:xlink="http://www.w3.org/1999/xlink" preserveAspectRatio="xMidYMid meet" viewBox="7.249999999999986 -0.9999999999999858 68.00000000000001 70.12999999999998" width="64" height="66.13"><defs><path d="M54.45 32.42C53.53 31.34 53.09 29.96 53.19 28.57C52.37 28.57 45.79 28.57 44.97 28.57C44.26 28.57 43.68 27.99 43.68 27.28C43.68 26.41 43.68 19.44 43.68 18.57C43.68 18.19 43.85 17.82 44.14 17.58C44.44 17.33 44.83 17.23 45.2 17.3C45.21 17.3 45.27 17.31 45.28 17.31C46.06 17.46 46.85 17.25 47.46 16.74C48.06 16.23 48.41 15.49 48.41 14.7C48.41 13.91 48.06 13.17 47.46 12.66C46.85 12.16 46.06 11.95 45.28 12.09C45.27 12.09 45.21 12.1 45.2 12.1C44.83 12.17 44.44 12.07 44.14 11.83C43.85 11.58 43.68 11.22 43.68 10.83C43.68 9.88 43.68 2.25 43.68 1.29C43.68 0.58 44.26 0 44.97 0C47.11 0 64.25 0 66.4 0C69.62 0 72.25 2.63 72.25 5.85C72.25 8 72.25 25.14 72.25 27.28C72.25 27.99 71.67 28.57 70.96 28.57C70.22 28.57 64.36 28.57 63.62 28.57C63.74 29.93 63.33 31.29 62.45 32.36C61.47 33.55 60.03 34.25 58.48 34.27C58.46 34.27 58.43 34.27 58.41 34.27C56.88 34.27 55.44 33.6 54.45 32.42ZM46.26 25.99C51.33 25.99 54.15 25.99 54.71 25.99C55.1 25.99 55.46 26.16 55.71 26.45C55.95 26.75 56.05 27.13 55.98 27.51C55.97 27.61 55.83 28.38 55.81 28.47C55.66 29.29 55.88 30.12 56.42 30.75C56.94 31.37 57.66 31.7 58.45 31.69C59.23 31.68 59.96 31.32 60.46 30.72C60.95 30.11 61.16 29.33 61.02 28.56C61 28.45 60.84 27.62 60.82 27.51C60.76 27.13 60.86 26.75 61.1 26.45C61.35 26.16 61.71 25.99 62.1 25.99C62.6 25.99 65.12 25.99 69.67 25.99C69.67 13.91 69.67 7.19 69.67 5.85C69.67 4.05 68.2 2.58 66.4 2.58C65.05 2.58 58.34 2.58 46.26 2.58C46.26 6.73 46.26 9.03 46.26 9.49C47.3 9.59 48.29 9.99 49.11 10.68C50.31 11.68 51 13.14 51 14.7C51 16.26 50.31 17.73 49.11 18.72C48.29 19.41 47.3 19.82 46.26 19.92C46.26 20.73 46.26 22.75 46.26 25.99Z" id="cLvm8SkUf"></path><path d="M62.81 43.53C62.81 43.06 62.81 39.32 62.81 38.85C62.81 38.14 62.23 37.56 61.52 37.56C60.63 37.56 53.54 37.56 52.66 37.56C52.27 37.56 51.91 37.73 51.66 38.02C51.42 38.32 51.32 38.71 51.38 39.08C51.4 39.19 51.56 40.02 51.58 40.13C51.72 40.9 51.51 41.68 51.02 42.29C50.52 42.89 49.79 43.25 49.01 43.26C48.22 43.27 47.5 42.94 46.98 42.33C46.44 41.69 46.22 40.86 46.37 40.05C46.39 39.95 46.53 39.18 46.54 39.08C46.61 38.71 46.51 38.32 46.27 38.02C46.02 37.73 45.66 37.56 45.27 37.56C44.71 37.56 41.89 37.56 36.82 37.56C36.82 33.92 36.82 31.89 36.82 31.49C37.86 31.39 38.85 30.98 39.67 30.3C40.87 29.3 41.56 27.83 41.56 26.27C41.56 24.71 40.87 23.25 39.67 22.25C38.85 21.57 37.86 21.16 36.82 21.06C36.82 20.24 36.82 13.68 36.82 12.86C36.82 12.15 36.24 11.57 35.53 11.57C33.39 11.57 16.25 11.57 14.1 11.57C10.88 11.57 8.25 14.2 8.25 17.42C8.25 21.71 8.25 55.99 8.25 60.28C8.25 63.5 10.88 66.13 14.1 66.13C18.39 66.13 52.67 66.13 56.96 66.13C60.18 66.13 62.81 63.5 62.81 60.28C62.81 59.9 62.81 56.9 62.81 56.53C62.81 55.82 62.23 55.24 61.52 55.24C60.8 55.24 60.23 55.82 60.23 56.53C60.23 56.9 60.23 59.9 60.23 60.28C60.23 62.08 58.76 63.55 56.96 63.55C55.61 63.55 48.9 63.55 36.82 63.55C36.82 58.55 36.82 55.77 36.82 55.22C36.82 54.83 36.65 54.47 36.36 54.22C36.06 53.98 35.67 53.88 35.3 53.95C35.29 53.95 35.23 53.96 35.22 53.96C34.44 54.1 33.65 53.89 33.04 53.39C32.44 52.88 32.09 52.14 32.09 51.35C32.09 50.56 32.44 49.81 33.04 49.31C33.65 48.8 34.44 48.59 35.22 48.74C35.23 48.74 35.29 48.75 35.3 48.75C35.67 48.82 36.06 48.72 36.36 48.47C36.65 48.23 36.82 47.86 36.82 47.48C36.82 46.99 36.82 44.55 36.82 40.14C40.98 40.14 43.29 40.14 43.75 40.14C43.65 41.53 44.09 42.91 45.01 43.99C46.02 45.19 47.49 45.87 49.04 45.84C50.59 45.82 52.03 45.12 53.01 43.93C53.89 42.86 54.3 41.5 54.18 40.14C54.58 40.14 56.6 40.14 60.23 40.14C60.23 42.17 60.23 43.3 60.23 43.53C60.23 44.24 60.8 44.82 61.52 44.82C62.23 44.82 62.81 44.24 62.81 43.53ZM10.83 17.42C10.83 15.62 12.3 14.15 14.1 14.15C15.45 14.15 22.16 14.15 34.24 14.15C34.24 19.1 34.24 21.86 34.24 22.41C34.24 22.79 34.41 23.15 34.7 23.4C35 23.64 35.39 23.74 35.76 23.68C35.77 23.67 35.83 23.66 35.84 23.66C35.84 23.66 35.84 23.66 35.84 23.66C36.62 23.52 37.41 23.73 38.02 24.23C38.62 24.74 38.97 25.48 38.97 26.27C38.97 27.06 38.62 27.81 38.02 28.31C37.41 28.82 36.62 29.03 35.84 28.88C35.83 28.88 35.77 28.87 35.76 28.87C35.39 28.8 35 28.9 34.7 29.15C34.41 29.39 34.24 29.76 34.24 30.14C34.24 30.63 34.24 33.11 34.24 37.56C30.91 37.56 29.07 37.56 28.7 37.56C28.06 35.37 26.05 33.79 23.66 33.79C21.28 33.79 19.27 35.37 18.63 37.56C18.11 37.56 15.51 37.56 10.83 37.56C10.83 26.82 10.83 20.11 10.83 17.42ZM29.5 51.35C29.5 52.91 30.19 54.37 31.39 55.37C32.21 56.06 33.2 56.46 34.24 56.56C34.24 57.03 34.24 59.36 34.24 63.55C22.16 63.55 15.45 63.55 14.1 63.55C12.3 63.55 10.83 62.08 10.83 60.28C10.83 58.94 10.83 52.22 10.83 40.14C16.17 40.14 19.13 40.14 19.72 40.14C20.41 40.14 20.98 39.6 21.01 38.91C21.07 37.49 22.24 36.37 23.66 36.37C25.09 36.37 26.26 37.49 26.32 38.91C26.35 39.6 26.92 40.14 27.61 40.14C28.05 40.14 30.26 40.14 34.24 40.14C34.24 43.74 34.24 45.73 34.24 46.13C33.2 46.23 32.21 46.64 31.39 47.32C30.19 48.32 29.5 49.79 29.5 51.35Z" id="be9hd854C"></path><path d="M60.3 50.4C60.12 49.9 60.28 49.32 60.68 48.98C61.11 48.62 61.73 48.57 62.2 48.86C62.65 49.14 62.89 49.69 62.78 50.21C62.67 50.81 62.13 51.25 61.52 51.25C60.98 51.25 60.49 50.9 60.3 50.4Z" id="bCozjUKe"></path></defs><g><g><use xlink:href="#cLvm8SkUf" opacity="1" fill="#ffffff" fill-opacity="1"></use><g><use xlink:href="#cLvm8SkUf" opacity="1" fill-opacity="0" stroke="#000000" stroke-width="1" stroke-opacity="0"></use></g></g><g><use xlink:href="#be9hd854C" opacity="1" fill="#ffffff" fill-opacity="1"></use><g><use xlink:href="#be9hd854C" opacity="1" fill-opacity="0" stroke="#000000" stroke-width="1" stroke-opacity="0"></use></g></g><g><use xlink:href="#bCozjUKe" opacity="1" fill="#ffffff" fill-opacity="1"></use><g><use xlink:href="#bCozjUKe" opacity="1" fill-opacity="0" stroke="#000000" stroke-width="1" stroke-opacity="0"></use></g></g></g></svg>