<?xml version="1.0" encoding="UTF-8" standalone="no"?>
<!DOCTYPE svg PUBLIC "-//W3C//DTD SVG 1.1//EN" "http://www.w3.org/Graphics/SVG/1.1/DTD/svg11.dtd">
<svg version="1.1" xmlns="http://www.w3.org/2000/svg" xmlns:xlink="http://www.w3.org/1999/xlink" preserveAspectRatio="xMidYMid meet" viewBox="90.99899111643512 0.05272446697911226 68 67.99924124623843" width="64" height="64"><defs><path d="M141.23 22.34C146.49 24.62 149.42 25.89 150 26.14C150.3 26.27 150.47 26.58 150.43 26.89C150.38 27.21 150.13 27.46 149.81 27.5C147.63 27.79 130.14 30.07 127.95 30.36C127.74 30.39 127.51 30.31 127.36 30.16C127.2 30 127.13 29.78 127.16 29.56C127.44 27.37 129.73 9.89 130.01 7.7C130.03 7.54 130.11 7.4 130.21 7.29C130.32 7.19 130.46 7.11 130.62 7.09C130.94 7.05 131.25 7.22 131.37 7.51C131.63 8.1 132.89 11.02 135.18 16.29C143.92 7.55 148.77 2.7 149.74 1.73C150.02 1.45 150.47 1.45 150.75 1.73C151.25 2.23 155.29 6.26 155.79 6.77C156.07 7.04 156.07 7.49 155.79 7.77C153.85 9.72 148.99 14.57 141.23 22.34ZM98.19 38.6C97.87 38.64 97.62 38.89 97.57 39.21C97.53 39.53 97.7 39.84 98 39.96C98.58 40.22 101.51 41.49 106.77 43.77C98.04 52.51 93.18 57.36 92.21 58.33C91.93 58.61 91.93 59.06 92.21 59.34C92.71 59.84 96.75 63.88 97.25 64.38C97.53 64.66 97.98 64.66 98.26 64.38C99.23 63.41 104.09 58.56 112.82 49.82C115.11 55.08 116.37 58.01 116.63 58.59C116.76 58.89 117.06 59.06 117.38 59.02C117.54 58.99 117.68 58.92 117.79 58.81C117.89 58.71 117.97 58.56 117.99 58.4C118.27 56.22 120.56 38.73 120.85 36.55C120.87 36.33 120.8 36.11 120.64 35.95C120.49 35.79 120.27 35.72 120.05 35.75C115.67 36.32 100.37 38.32 98.19 38.6ZM149.08 40.43C149.37 40.3 149.54 39.99 149.5 39.67C149.48 39.52 149.41 39.37 149.3 39.27C149.19 39.16 149.05 39.09 148.89 39.07C146.7 38.78 129.22 36.49 127.03 36.21C126.81 36.18 126.59 36.26 126.43 36.41C126.28 36.57 126.2 36.79 126.23 37.01C126.52 39.19 128.8 56.68 129.09 58.87C129.13 59.18 129.38 59.43 129.7 59.48C130.01 59.52 130.32 59.35 130.45 59.06C130.7 58.47 131.97 55.55 134.25 50.28C142.99 59.02 147.85 63.87 148.82 64.84C149.1 65.12 149.55 65.12 149.82 64.84C150.33 64.34 154.36 60.31 154.87 59.8C155.14 59.52 155.15 59.07 154.87 58.79C153.9 57.82 149.04 52.97 140.3 44.23C145.57 41.95 148.49 40.68 149.08 40.43ZM97.99 25.68C97.7 25.81 97.53 26.12 97.57 26.43C97.6 26.59 97.67 26.73 97.77 26.84C97.88 26.95 98.03 27.02 98.19 27.04C100.37 27.32 117.86 29.61 120.04 29.9C120.26 29.93 120.48 29.85 120.64 29.69C120.8 29.54 120.87 29.32 120.84 29.1C120.56 26.91 118.27 9.43 117.99 7.24C117.94 6.92 117.7 6.67 117.38 6.63C117.06 6.58 116.75 6.76 116.63 7.05C116.37 7.63 115.1 10.56 112.82 15.82C104.08 7.09 99.23 2.23 98.26 1.26C97.98 0.98 97.53 0.98 97.25 1.26C96.74 1.77 92.71 5.8 92.21 6.3C91.93 6.58 91.93 7.03 92.21 7.31C93.18 8.28 98.03 13.14 106.77 21.87C101.5 24.16 98.58 25.43 97.99 25.68Z" id="e48btfIrc"></path></defs><g><g><use xlink:href="#e48btfIrc" opacity="1" fill="#ffffff" fill-opacity="1"></use><g><use xlink:href="#e48btfIrc" opacity="1" fill-opacity="0" stroke="#000000" stroke-width="1" stroke-opacity="0"></use></g></g></g></svg>