<?xml version="1.0" encoding="UTF-8" standalone="no"?>
<!DOCTYPE svg PUBLIC "-//W3C//DTD SVG 1.1//EN" "http://www.w3.org/Graphics/SVG/1.1/DTD/svg11.dtd">
<svg version="1.1" xmlns="http://www.w3.org/2000/svg" xmlns:xlink="http://www.w3.org/1999/xlink" preserveAspectRatio="xMidYMid meet" viewBox="237 141.96875 68 68" width="64" height="64"><defs><path d="M302 142.97C302 142.97 302 142.97 302 142.97C302 181.37 302 202.7 302 206.97C302 206.97 302 206.97 302 206.97C263.6 206.97 242.27 206.97 238 206.97C238 206.97 238 206.97 238 206.97C238 168.57 238 147.24 238 142.97C238 142.97 238 142.97 238 142.97C276.4 142.97 297.73 142.97 302 142.97Z" id="jQlWLhTWJ"></path><path d="M264.64 161.28C268.03 161.28 269.91 161.28 270.28 161.28C270.28 182.09 282.91 184.8 283.04 184.82C284.57 185.12 285.56 186.6 285.26 188.13C284.97 189.66 283.49 190.65 281.95 190.35C281.52 190.27 275.17 188.93 270.28 182.1C270.28 183.12 270.28 191.27 270.28 192.29C270.28 193.85 269.02 195.11 267.46 195.11C265.9 195.11 264.64 193.85 264.64 192.29C264.64 190.22 264.64 179.88 264.64 161.28Z" id="apV4bIIVI"></path><path d="M264.64 161.28C268.03 161.28 269.91 161.28 270.28 161.28C270.28 182.09 282.91 184.8 283.04 184.82C284.57 185.12 285.56 186.6 285.26 188.13C284.97 189.66 283.49 190.65 281.95 190.35C281.52 190.27 275.17 188.93 270.28 182.1C270.28 183.12 270.28 191.27 270.28 192.29C270.28 193.85 269.02 195.11 267.46 195.11C265.9 195.11 264.64 193.85 264.64 192.29C264.64 190.22 264.64 179.88 264.64 161.28Z" id="b108y6SNkl"></path><path d="M265.81 150.94C266.72 149.69 268.2 149.69 269.12 150.94C269.84 151.92 275.64 159.88 276.37 160.88C277.27 162.13 276.89 163.16 275.51 163.16C274.44 163.16 269.07 163.16 259.42 163.16C258.23 162.47 257.95 161.72 258.55 160.88C259.29 159.88 265.08 151.92 265.81 150.94Z" id="b69LTST4"></path><path d="M265.81 150.94C266.72 149.69 268.2 149.69 269.12 150.94C269.84 151.92 275.64 159.88 276.37 160.88C277.27 162.13 276.89 163.16 275.51 163.16C274.44 163.16 269.07 163.16 259.42 163.16C258.23 162.47 257.95 161.72 258.55 160.88C259.29 159.88 265.08 151.92 265.81 150.94Z" id="bKmH17VYj"></path></defs><g><g><use xlink:href="#jQlWLhTWJ" opacity="1" fill="#000000" fill-opacity="0"></use><g><use xlink:href="#jQlWLhTWJ" opacity="1" fill-opacity="0" stroke="#000000" stroke-width="1" stroke-opacity="0"></use></g></g><g><use xlink:href="#apV4bIIVI" opacity="1" fill="#ffffff" fill-opacity="1"></use><g><use xlink:href="#apV4bIIVI" opacity="1" fill-opacity="0" stroke="#000000" stroke-width="1" stroke-opacity="0"></use></g></g><g><use xlink:href="#b108y6SNkl" opacity="1" fill="#ffffff" fill-opacity="1"></use><g><use xlink:href="#b108y6SNkl" opacity="1" fill-opacity="0" stroke="#000000" stroke-width="1" stroke-opacity="0"></use></g></g><g><use xlink:href="#b69LTST4" opacity="1" fill="#ffffff" fill-opacity="1"></use><g><use xlink:href="#b69LTST4" opacity="1" fill-opacity="0" stroke="#000000" stroke-width="1" stroke-opacity="0"></use></g></g><g><use xlink:href="#bKmH17VYj" opacity="1" fill="#ffffff" fill-opacity="1"></use><g><use xlink:href="#bKmH17VYj" opacity="1" fill-opacity="0" stroke="#000000" stroke-width="1" stroke-opacity="0"></use></g></g></g></svg>