<?xml version="1.0" encoding="UTF-8" standalone="no"?>
<!DOCTYPE svg PUBLIC "-//W3C//DTD SVG 1.1//EN" "http://www.w3.org/Graphics/SVG/1.1/DTD/svg11.dtd">
<svg version="1.1" xmlns="http://www.w3.org/2000/svg" xmlns:xlink="http://www.w3.org/1999/xlink" preserveAspectRatio="xMidYMid meet" viewBox="-1 -1 68 68" width="64" height="64"><defs><path d="M45.75 18.25C45.75 12.93 45.75 9.97 45.75 9.38C45.75 4.21 41.54 0 36.38 0C35.5 0 28.5 0 27.63 0C22.46 0 18.25 4.21 18.25 9.38C18.25 9.97 18.25 12.93 18.25 18.25C12.93 18.25 9.97 18.25 9.38 18.25C4.21 18.25 0 22.46 0 27.63C0 28.5 0 35.5 0 36.38C0 41.54 4.21 45.75 9.38 45.75C9.97 45.75 12.93 45.75 18.25 45.75C18.25 51.08 18.25 54.03 18.25 54.63C18.25 59.79 22.46 64 27.63 64C28.5 64 35.5 64 36.38 64C41.54 64 45.75 59.79 45.75 54.63C45.75 54.03 45.75 51.08 45.75 45.75C51.08 45.75 54.03 45.75 54.63 45.75C59.79 45.75 64 41.54 64 36.38C64 35.5 64 28.5 64 27.63C64 22.46 59.79 18.25 54.63 18.25C53.44 18.25 50.48 18.25 45.75 18.25ZM9.38 42C6.27 42 3.75 39.48 3.75 36.38C3.75 35.5 3.75 28.5 3.75 27.63C3.75 24.52 6.27 22 9.38 22C11.64 22 29.74 22 32 22C33.04 22 33.88 21.16 33.88 20.13C33.88 19.09 33.04 18.25 32 18.25C31.33 18.25 28 18.25 22 18.25C22 12.93 22 9.97 22 9.38C22 6.27 24.52 3.75 27.63 3.75C28.5 3.75 35.5 3.75 36.38 3.75C39.48 3.75 42 6.27 42 9.38C42 10.76 42 17.67 42 30.13C28.88 30.13 21.58 30.13 20.13 30.13C19.09 30.13 18.25 30.96 18.25 32C18.25 32.67 18.25 36 18.25 42C13.52 42 10.56 42 9.38 42ZM60.25 36.38C60.25 39.48 57.73 42 54.63 42C52.36 42 34.26 42 32 42C30.96 42 30.13 42.84 30.13 43.88C30.13 44.91 30.96 45.75 32 45.75C32.67 45.75 36 45.75 42 45.75C42 51.08 42 54.03 42 54.63C42 57.73 39.48 60.25 36.38 60.25C35.5 60.25 28.5 60.25 27.63 60.25C24.52 60.25 22 57.73 22 54.63C22 53.24 22 46.33 22 33.88C35.13 33.88 42.42 33.88 43.88 33.88C44.91 33.88 45.75 33.04 45.75 32C45.75 31.33 45.75 28 45.75 22C51.08 22 54.03 22 54.63 22C57.73 22 60.25 24.52 60.25 27.63C60.25 29.38 60.25 34.63 60.25 36.38Z" id="bgdQSo91t"></path><path d="M27.63 13.13C26.59 13.13 25.75 12.29 25.75 11.25C25.75 10.21 26.59 9.38 27.63 9.38C28.66 9.38 29.5 10.21 29.5 11.25C29.5 12.29 28.66 13.13 27.63 13.13Z" id="c1aBA9Z6Vy"></path><path d="M36.38 54.63C35.34 54.63 34.5 53.79 34.5 52.75C34.5 51.71 35.34 50.88 36.38 50.88C37.41 50.88 38.25 51.71 38.25 52.75C38.25 53.79 37.41 54.63 36.38 54.63Z" id="b2QeToDcR7"></path></defs><g><g><use xlink:href="#bgdQSo91t" opacity="1" fill="#ffffff" fill-opacity="1"></use><g><use xlink:href="#bgdQSo91t" opacity="1" fill-opacity="0" stroke="#000000" stroke-width="1" stroke-opacity="0"></use></g></g><g><use xlink:href="#c1aBA9Z6Vy" opacity="1" fill="#ffffff" fill-opacity="1"></use><g><use xlink:href="#c1aBA9Z6Vy" opacity="1" fill-opacity="0" stroke="#000000" stroke-width="1" stroke-opacity="0"></use></g></g><g><use xlink:href="#b2QeToDcR7" opacity="1" fill="#ffffff" fill-opacity="1"></use><g><use xlink:href="#b2QeToDcR7" opacity="1" fill-opacity="0" stroke="#000000" stroke-width="1" stroke-opacity="0"></use></g></g></g></svg>