<svg xmlns="http://www.w3.org/2000/svg" xmlns:xlink="http://www.w3.org/1999/xlink" style="" version="1.1" xml:space="preserve" width="512" height="512"><rect id="backgroundrect" width="100%" height="100%" x="0" y="0" fill="none" stroke="none"/><g class="currentLayer" style=""><title>Layer 1</title><circle cx="249.93572998046875" cy="262.66667437553406" r="253.4399871826172" id="svg_2" class="selected" fill="#ababec" fill-opacity="1" stroke="#ffffff" stroke-opacity="1"/><path fill="#ffffff" stroke="#ffffff" stroke-dashoffset="" fill-rule="nonzero" marker-start="" marker-mid="" marker-end="" id="svg_10" d="M334.82068608859163,144.4641631820743 L331.1760576505145,123.60678459594357 L316.83209919377356,139.18666903291262 L295.8754856749194,136.20962105133037 L306.25906818036077,154.65829717965204 L296.94902721978,173.67531883170477 L317.7161922306989,169.49843029997018 L332.9262010093786,184.2303071300609 L335.3709888972707,163.19250139350396 L354.0812843936783,153.2780294791113 L334.82068608859163,144.4641631820743 zM363.4544748569411,266.69453622006046 L361.8125877883081,255.41783932007604 L353.8557504557009,263.58216787567693 L342.62416034334126,261.6515973663893 L347.92871856510516,271.73747507373207 L342.62416034334126,281.82335278103966 L353.8557504557009,279.8927822717515 L361.8125877883081,288.05711082734956 L363.4544748569411,276.78041392740306 L373.6756729270488,271.7284537161858 L363.4544748569411,266.69453622006046 zM171.32662375426375,171.7357269649405 L179.87887068317502,168.379781967523 L187.49289643006173,173.51293439637223 L186.93357226383637,164.34723515610207 L194.16870099481733,158.6908439910726 L185.28266383766086,156.3813764659809 L182.13421006316435,147.74793731937004 L177.19952749976218,155.49728342898706 L168.0157855445056,155.82205229972257 L173.85260385985373,162.91283931039285 L171.32662375426375,171.7357269649405 zM221.11549590698257,197.29323281902026 L230.3263019348765,187.40582497708624 L243.68693242193422,189.38150227399902 L237.12840550492322,177.56352392285055 L243.14565097069772,165.46588348854917 L229.88425541632506,168.05501309678738 L220.24042422753317,158.60063041589464 L218.59853715890276,172.01538904805176 L206.6181743723823,178.26718980938372 L218.86917788446897,183.96868776196996 L221.11549590698257,197.29323281902026 zM282.4156202551378,217.2845610832124 C277.11106203337545,213.96470151590592 271.8425892417272,211.70936213591693 267.15148333135664,210.70799145117692 C262.7129754315356,209.9050906318851 257.7782928680964,209.36380918071535 254.29604886538948,214.0819791636161 L150.05426272221885,380.2734273963786 L210.31693095555823,380.2734273963786 L297.54443681608154,241.20017986862564 C300.27790814466533,236.00387793716772 297.6526931063518,231.8089466903417 294.9913926379595,228.14627553728033 C292.0594514439312,224.38436945142746 287.7201784768651,220.61344200809668 282.4156202551378,217.2845610832124 zM249.74928467533147,300.41637062967 C247.45785986526502,296.84391305174995 243.07348011054077,292.6850672350756 237.36296080041154,289.10358829964343 C231.6614628477926,285.53113072172425 226.01409304030886,283.3840476320373 221.79209772095157,282.8788516108782 L261.67551931671767,219.26023838008925 C262.25288619796294,219.14296073234368 264.039114986941,219.07078987218782 266.57411645007653,219.85564797642652 C269.69550615197073,220.68561286825346 273.6558821032353,222.42673486960538 277.6252794120112,224.9256509026303 C282.17204360206864,227.74933580639063 285.81667204014343,231.0331099436169 287.84647748212024,233.67636769698674 C288.86589088188185,234.9844645374058 289.4522791206732,236.12115558491155 289.60564219853035,236.69852246619223 C289.6236849135524,236.75265061129176 289.6417276286089,236.79775739891585 289.6417276286089,236.83384282899385 L249.74928467533147,300.41637062967 z" style="color: rgb(122, 255, 250);" class=""/></g></svg>