<?xml version="1.0" encoding="UTF-8" standalone="no"?>
<!DOCTYPE svg PUBLIC "-//W3C//DTD SVG 1.1//EN" "http://www.w3.org/Graphics/SVG/1.1/DTD/svg11.dtd">
<svg version="1.1" xmlns="http://www.w3.org/2000/svg" xmlns:xlink="http://www.w3.org/1999/xlink" preserveAspectRatio="xMidYMid meet" viewBox="185.719892603283 101.03124999999991 68.00000000000006 72.85999999999999" width="64" height="68.86"><defs><path d="M198.22 107.01C198.22 105.52 199.34 104.32 200.72 104.32C202.1 104.32 203.22 105.52 203.22 107.01C203.22 107.68 203.22 113.02 203.22 113.69C205.18 110.79 207.64 108.3 210.49 106.37C214.67 103.53 219.5 102.03 224.47 102.03C238.94 102.03 250.72 114.7 250.72 130.27C250.72 131.76 249.6 132.96 248.22 132.96C246.84 132.96 245.72 131.76 245.72 130.27C245.72 117.67 236.19 107.41 224.47 107.41C217.25 107.41 210.67 111.27 206.76 117.63C207.39 117.63 212.46 117.63 213.09 117.63C214.48 117.63 215.59 118.84 215.59 120.32C215.59 121.81 214.48 123.01 213.09 123.01C212.23 123.01 205.33 123.01 204.47 123.01C201.02 123.01 198.22 120 198.22 116.29C198.22 114.43 198.22 107.94 198.22 107.01ZM235.84 137.54C234.46 137.54 233.34 138.74 233.34 140.23C233.34 141.71 234.46 142.92 235.84 142.92C236.48 142.92 241.55 142.92 242.18 142.92C238.27 149.28 231.69 153.14 224.47 153.14C212.75 153.14 203.22 142.88 203.22 130.27C203.22 128.79 202.1 127.58 200.72 127.58C199.34 127.58 198.22 128.79 198.22 130.27C198.22 137.13 200.5 143.41 204.29 148.31C202.6 150.11 189.14 164.49 187.46 166.29C186.48 167.34 186.47 169.04 187.45 170.1C187.93 170.63 188.58 170.89 189.22 170.89C189.86 170.89 190.49 170.63 190.98 170.11C192.67 168.31 206.15 153.9 207.83 152.1C212.36 156.11 218.16 158.52 224.47 158.52C229.44 158.52 234.27 157.02 238.45 154.18C241.3 152.25 243.76 149.76 245.72 146.86C245.72 147.52 245.72 152.87 245.72 153.54C245.72 155.03 246.84 156.23 248.22 156.23C249.6 156.23 250.72 155.03 250.72 153.54C250.72 152.61 250.72 145.19 250.72 144.26C250.72 140.55 247.92 137.54 244.47 137.54C242.74 137.54 236.71 137.54 235.84 137.54Z" id="bfuwOz3e7"></path></defs><g><g><use xlink:href="#bfuwOz3e7" opacity="1" fill="#ffffff" fill-opacity="1"></use><g><use xlink:href="#bfuwOz3e7" opacity="1" fill-opacity="0" stroke="#000000" stroke-width="1" stroke-opacity="0"></use></g></g></g></svg>