<svg xmlns="http://www.w3.org/2000/svg" xmlns:xlink="http://www.w3.org/1999/xlink" style="" version="1.1" xml:space="preserve" width="512" height="512"><rect id="backgroundrect" width="100%" height="100%" x="0" y="0" fill="none" stroke="none"/><g class="currentLayer" style=""><title>Layer 1</title><circle cx="263.26906299591064" cy="259.3333411216736" r="253.4399871826172" id="svg_2" class="" fill="#ecabec" fill-opacity="1" stroke="#ffffff" stroke-opacity="1"/><path fill="#ffffff" stroke="#ffffff" stroke-dashoffset="" fill-rule="nonzero" marker-start="" marker-mid="" marker-end="" id="svg_7" d="M336.36772267942865,383.52530636698276 L375.0490000450691,361.2208337920964 L413.70864358669974,338.9163612171486 L375.02736622106124,316.5902548181559 L336.36772267942865,294.28578224320745 L336.36772267942865,319.08896149362266 C326.8921077543077,319.08896149362266 315.8804913229776,319.08896149362266 312.19192432590836,319.08896149362266 C294.60362538947686,319.5865394463311 272.8940829753917,305.75170897916075 249.79997582339053,287.90380415435436 C241.18971385940455,281.6516290096893 232.5037335113655,274.7720729681907 223.29854138657842,268.5523485594987 C232.5037335113655,262.33262415092804 241.17889694741598,255.45306810936654 249.79997582339053,249.20089296470178 C272.8940829753917,231.3854388759912 294.60362538947686,217.51815767278777 312.17029050186443,218.02655253748551 L336.36772267942865,218.01573562543334 L336.36772267942865,242.85136561188187 L375.02736622106124,220.53607612488068 L413.70864358669974,198.20996972601566 L375.02736622106124,175.8514125909279 L336.36772267942865,153.52530619200184 L336.36772267942865,178.35011926646098 L312.18110741385465,178.35011926646098 C276.25814261205795,178.8585141311595 249.4105669907969,200.18946462466815 225.91623409421226,217.5289745847783 C202.59497178986697,235.82037280215687 181.6317963048127,249.60111870925454 169.47358719996444,248.70331501199655 L100.11554735975116,248.70331501199655 L100.11554735975116,288.3364806350002 L169.4952210240043,288.3364806350002 C181.642613216833,287.4386769377382 202.61660561387816,301.2194228448393 225.93786791825505,319.51082106221673 C249.42138390284947,336.8611479342507 276.25814261205795,358.1812815158983 312.19192432590836,358.68967638059655 L336.36772267942865,358.68967638059655 L336.36772267942865,383.52530636698276 L336.36772267942865,383.52530636698276 z" style="color: rgb(122, 255, 250);" class=""/></g></svg>