<?xml version="1.0" encoding="UTF-8" standalone="no"?>
<!DOCTYPE svg PUBLIC "-//W3C//DTD SVG 1.1//EN" "http://www.w3.org/Graphics/SVG/1.1/DTD/svg11.dtd">
<svg version="1.1" xmlns="http://www.w3.org/2000/svg" xmlns:xlink="http://www.w3.org/1999/xlink" preserveAspectRatio="xMidYMid meet" viewBox="49 139 68 72.74000000000001" width="64" height="68.74"><defs><path d="M103.48 141.04C102.09 139.65 99.84 139.65 98.45 141.04C97.06 142.43 97.06 144.68 98.45 146.07C98.68 146.3 99.81 147.43 101.86 149.48C101.32 149.48 101.02 149.48 100.96 149.48C93.28 149.48 86.14 153.4 82 159.87C77.86 153.4 70.72 149.48 63.04 149.48C62.98 149.48 62.68 149.48 62.14 149.48C64.19 147.43 65.32 146.3 65.55 146.07C66.94 144.68 66.94 142.43 65.55 141.04C64.16 139.65 61.91 139.65 60.52 141.04C59.57 141.99 51.99 149.57 51.04 150.52C49.65 151.91 49.65 154.16 51.04 155.55C51.04 155.55 51.04 155.55 51.04 155.55C51.99 156.5 59.57 164.08 60.52 165.03C61.91 166.42 64.16 166.42 65.55 165.03C66.94 163.64 66.94 161.39 65.55 160C65.32 159.78 64.19 158.64 62.14 156.59C62.68 156.59 62.98 156.59 63.04 156.59C71.54 156.6 78.43 163.49 78.44 172C78.44 175.32 78.44 201.87 78.44 205.18C78.44 207.15 80.04 208.74 82 208.74C83.96 208.74 85.56 207.15 85.56 205.18C85.56 201.87 85.56 175.32 85.56 172C85.57 163.49 92.46 156.6 100.96 156.59C101.02 156.59 101.32 156.59 101.86 156.59C99.81 158.64 98.68 159.78 98.45 160C97.06 161.39 97.06 163.64 98.45 165.03C99.84 166.42 102.09 166.42 103.48 165.03C104.43 164.08 112.01 156.5 112.96 155.55C114.35 154.16 114.35 151.91 112.96 150.52C112.96 150.52 112.96 150.52 112.96 150.52C111.06 148.63 104.43 141.99 103.48 141.04Z" id="bl1AeqEb6"></path></defs><g><g><use xlink:href="#bl1AeqEb6" opacity="1" fill="#ffffff" fill-opacity="1"></use><g><use xlink:href="#bl1AeqEb6" opacity="1" fill-opacity="0" stroke="#000000" stroke-width="1" stroke-opacity="0"></use></g></g></g></svg>