<?xml version="1.0" encoding="UTF-8" standalone="no"?>
<!DOCTYPE svg PUBLIC "-//W3C//DTD SVG 1.1//EN" "http://www.w3.org/Graphics/SVG/1.1/DTD/svg11.dtd">
<svg version="1.1" xmlns="http://www.w3.org/2000/svg" xmlns:xlink="http://www.w3.org/1999/xlink" preserveAspectRatio="xMidYMid meet" viewBox="93.02008059190572 -1 49.20000000000002 68" width="45.2" height="64"><defs><path d="M116.62 0C110.37 0 104.52 0.87 100.14 2.46C96.32 3.84 94.03 5.65 94.03 7.29C94.03 8.94 96.32 10.74 100.14 12.13C100.14 12.13 100.14 12.13 100.14 12.13C104.52 13.71 110.37 14.59 116.62 14.59C122.87 14.59 128.72 13.71 133.1 12.13C136.92 10.74 139.21 8.94 139.21 7.29C139.21 5.65 136.92 3.84 133.1 2.46C128.72 0.87 122.87 0 116.62 0Z" id="c75NVtjnfD"></path><path d="M94.02 44.92C94.02 46.1 94.02 55.53 94.02 56.71C94.02 58.35 96.31 60.16 100.14 61.54C104.52 63.13 110.38 64 116.62 64C120.3 64.01 123.97 63.68 127.58 63.02C134.43 61.7 139.22 59.11 139.22 56.71C139.22 55.53 139.22 46.1 139.22 44.92C134.73 48.38 125.47 50.21 116.62 50.21C107.77 50.21 98.51 48.38 94.02 44.92ZM112.65 58.22C111.89 58.22 111.27 57.6 111.27 56.84C111.27 56.08 111.89 55.46 112.65 55.46C113.45 55.46 119.79 55.46 120.59 55.46C121.35 55.46 121.97 56.08 121.97 56.84C121.97 57.6 121.35 58.22 120.59 58.22C119 58.22 113.45 58.22 112.65 58.22Z" id="j1lNMZsyjG"></path><path d="M94.02 28.49C94.02 29.65 94.02 38.99 94.02 40.16C94.02 41.8 96.31 43.61 100.14 45C104.52 46.58 110.38 47.45 116.62 47.45C122.87 47.45 128.73 46.58 133.11 45C136.93 43.61 139.22 41.8 139.22 40.16C139.22 38.99 139.22 29.65 139.22 28.49C134.73 31.95 125.47 33.78 116.62 33.78C107.77 33.78 98.51 31.95 94.02 28.49ZM112.65 41.49C111.89 41.49 111.27 40.87 111.27 40.11C111.27 39.35 111.89 38.73 112.65 38.73C113.45 38.73 119.79 38.73 120.59 38.73C121.35 38.73 121.97 39.35 121.97 40.11C121.97 40.87 121.35 41.49 120.59 41.49C119 41.49 113.45 41.49 112.65 41.49Z" id="bdiJKbOlP"></path><path d="M94.02 12.05C94.02 13.22 94.02 22.56 94.02 23.73C94.02 25.37 96.31 27.18 100.14 28.56C104.52 30.15 110.38 31.02 116.62 31.02C122.87 31.02 128.73 30.15 133.11 28.56C136.93 27.18 139.22 25.37 139.22 23.73C139.22 22.56 139.22 13.22 139.22 12.05C134.73 15.52 125.47 17.35 116.62 17.35C107.77 17.35 98.51 15.52 94.02 12.05ZM112.65 25.27C111.89 25.27 111.27 24.65 111.27 23.89C111.27 23.13 111.89 22.51 112.65 22.51C113.45 22.51 119.79 22.51 120.59 22.51C121.35 22.51 121.97 23.13 121.97 23.89C121.97 24.65 121.35 25.27 120.59 25.27C119 25.27 113.45 25.27 112.65 25.27Z" id="bsc45PA0x"></path></defs><g><g><use xlink:href="#c75NVtjnfD" opacity="1" fill="#ffffff" fill-opacity="1"></use><g><use xlink:href="#c75NVtjnfD" opacity="1" fill-opacity="0" stroke="#000000" stroke-width="1" stroke-opacity="0"></use></g></g><g><use xlink:href="#j1lNMZsyjG" opacity="1" fill="#ffffff" fill-opacity="1"></use><g><use xlink:href="#j1lNMZsyjG" opacity="1" fill-opacity="0" stroke="#000000" stroke-width="1" stroke-opacity="0"></use></g></g><g><use xlink:href="#bdiJKbOlP" opacity="1" fill="#ffffff" fill-opacity="1"></use><g><use xlink:href="#bdiJKbOlP" opacity="1" fill-opacity="0" stroke="#000000" stroke-width="1" stroke-opacity="0"></use></g></g><g><use xlink:href="#bsc45PA0x" opacity="1" fill="#ffffff" fill-opacity="1"></use><g><use xlink:href="#bsc45PA0x" opacity="1" fill-opacity="0" stroke="#000000" stroke-width="1" stroke-opacity="0"></use></g></g></g></svg>