<?xml version="1.0" encoding="UTF-8" standalone="no"?>
<!DOCTYPE svg PUBLIC "-//W3C//DTD SVG 1.1//EN" "http://www.w3.org/Graphics/SVG/1.1/DTD/svg11.dtd">
<svg version="1.1" xmlns="http://www.w3.org/2000/svg" xmlns:xlink="http://www.w3.org/1999/xlink" preserveAspectRatio="xMidYMid meet" viewBox="0.5070540060835942 -1.0000878646419409 68 68.38" width="64" height="64.38"><defs><path d="M50.33 12.48C47.27 4.13 38.52 -1.08 29.73 0.19C22.2 1.27 15.89 6.91 13.99 14.28C14.17 14.33 15.64 14.71 15.82 14.75C17.8 7.08 25.03 1.67 32.94 1.89C40.77 2.12 46.77 7.45 49.07 14.71C52.78 13.79 56.5 14.16 59.54 16.63C62.43 18.98 63.98 22.73 63.55 26.43C63.1 30.3 60.59 33.67 57.05 35.28C54.9 36.25 52.84 36.12 50.55 36.12C50.55 36.31 50.55 37.83 50.55 38.02C52.85 38.02 54.94 38.12 57.14 37.29C61.61 35.6 64.31 32.21 65.23 27.9C66.92 19.98 60.7 12.28 52.6 12.28C51.84 12.28 51.08 12.34 50.33 12.48Z" id="awqtf6Kd"></path><path d="M4.64 22.62C7.79 17.24 15.09 16.83 19.21 21.26C19.35 21.13 20.45 20.09 20.59 19.96C18.97 18.23 16.97 16.95 14.63 16.47C14.63 16.47 14.63 16.47 14.63 16.47C6.61 14.99 -0.54 22.6 2.04 30.53C3.23 34.16 6.4 37.15 10.19 37.87C12.23 38.26 14.42 38.08 16.48 38.08C16.48 37.89 16.48 36.38 16.48 36.19C14.52 36.19 12.5 36.32 10.56 36.01C4.65 34.76 1.58 27.83 4.64 22.62Z" id="e2AVtqE4gQ"></path><path d="M22.16 47.39L24.05 47.39L24.05 49.28L22.16 49.28L22.16 47.39Z" id="c4xbGUiB5f"></path><path d="M25.94 47.39L27.84 47.39L27.84 49.28L25.94 49.28L25.94 47.39Z" id="bHXj9Y95K"></path><path d="M37.3 47.39L44.87 47.39L44.87 49.28L37.3 49.28L37.3 47.39Z" id="c69PU7AK9"></path><path d="M32.63 54.92L34.52 54.92L34.52 56.81L32.63 56.81L32.63 54.92Z" id="a3FdUGO11L"></path><path d="M22.16 58.7L24.05 58.7L24.05 60.59L22.16 60.59L22.16 58.7Z" id="b1dNh6L1Rm"></path><path d="M25.94 58.7L27.84 58.7L27.84 60.59L25.94 60.59L25.94 58.7Z" id="oqUTR7JZS"></path><path d="M37.3 58.7L44.87 58.7L44.87 60.59L37.3 60.59L37.3 58.7Z" id="avaiuryh8"></path><path d="M32.63 39.86L34.52 39.86L34.52 41.75L32.63 41.75L32.63 39.86Z" id="bCpYEQjes"></path><path d="M22.16 36.08L24.05 36.08L24.05 37.97L22.16 37.97L22.16 36.08Z" id="d4NIannU"></path><path d="M25.94 36.08L27.84 36.08L27.84 37.97L25.94 37.97L25.94 36.08Z" id="fQvN4ufTB"></path><path d="M37.3 36.08L44.87 36.08L44.87 37.97L37.3 37.97L37.3 36.08Z" id="ahfmySYb6"></path><path d="M40.14 24.72C41.9 24.72 42.88 24.72 43.08 24.72C43.48 25.81 44.53 26.58 45.75 26.58C47.33 26.58 48.61 25.3 48.61 23.73C48.61 22.16 47.33 20.88 45.75 20.88C44.49 20.88 43.42 21.7 43.04 22.83C42.72 22.83 41.12 22.83 38.25 22.83L38.25 32.29L36.35 32.29L36.35 18.37C37.6 17.12 38.29 16.43 38.42 16.29C38.82 16.5 39.27 16.62 39.74 16.62C41.31 16.62 42.59 15.34 42.59 13.76C42.59 12.19 41.31 10.91 39.74 10.91C38.17 10.91 36.89 12.19 36.89 13.76C36.89 14.17 36.97 14.56 37.13 14.91C36.95 15.09 36.06 15.98 34.46 17.58L34.46 32.29L32.57 32.29L32.57 12.11C31.06 10.6 30.22 9.76 30.05 9.59C30.17 9.28 30.23 8.94 30.23 8.59C30.23 7.02 28.95 5.74 27.38 5.74C25.8 5.74 24.52 7.02 24.52 8.59C24.52 10.16 25.8 11.44 27.38 11.44C27.91 11.44 28.4 11.3 28.82 11.05C28.95 11.17 29.56 11.79 30.67 12.9L30.67 32.29L28.78 32.29L28.78 24.64C25.9 24.64 24.29 24.64 23.97 24.64C23.57 23.56 22.52 22.78 21.3 22.78C19.73 22.78 18.45 24.06 18.45 25.64C18.45 27.21 19.73 28.49 21.3 28.49C22.56 28.49 23.63 27.67 24.01 26.53C24.2 26.53 25.16 26.53 26.89 26.53L26.89 32.29L18.39 32.29L18.39 41.75L20.33 41.75L20.33 43.6L18.39 43.6L18.39 53.07L20.33 53.07L20.33 54.92L18.39 54.92L18.39 64.38L48.63 64.38L48.63 54.92L46.82 54.92L46.82 53.07L48.63 53.07L48.63 43.6L46.82 43.6L46.82 41.75L48.63 41.75L48.63 32.29L40.14 32.29L40.14 24.72ZM46.71 23.73C46.71 24.26 46.28 24.69 45.75 24.69C45.22 24.69 44.79 24.26 44.79 23.73C44.79 23.2 45.22 22.77 45.75 22.77C46.28 22.77 46.71 23.2 46.71 23.73ZM40.7 13.76C40.7 14.29 40.27 14.72 39.74 14.72C39.21 14.72 38.78 14.29 38.78 13.76C38.78 13.23 39.21 12.8 39.74 12.8C40.27 12.8 40.7 13.23 40.7 13.76ZM27.38 7.63C27.91 7.63 28.34 8.06 28.34 8.59C28.34 9.12 27.91 9.55 27.38 9.55C26.85 9.55 26.42 9.12 26.42 8.59C26.42 8.06 26.85 7.63 27.38 7.63ZM20.34 25.64C20.34 25.11 20.77 24.68 21.3 24.68C21.83 24.68 22.26 25.11 22.26 25.64C22.26 26.17 21.83 26.6 21.3 26.6C20.77 26.6 20.34 26.17 20.34 25.64ZM20.29 45.5L46.74 45.5L46.74 51.17L20.29 51.17L20.29 45.5ZM44.93 54.92L36.42 54.92L36.42 56.81L46.74 56.81L46.74 62.49L20.29 62.49L20.29 56.81L30.74 56.81L30.74 54.92L22.22 54.92L22.22 53.07L44.93 53.07L44.93 54.92ZM46.74 39.86L36.42 39.86L36.42 41.75L44.93 41.75L44.93 43.6L22.22 43.6L22.22 41.75L30.74 41.75L30.74 39.86L20.29 39.86L20.29 34.18L46.74 34.18L46.74 39.86Z" id="dUD3YlsES"></path></defs><g><g><use xlink:href="#awqtf6Kd" opacity="1" fill="#ffffff" fill-opacity="1"></use><g><use xlink:href="#awqtf6Kd" opacity="1" fill-opacity="0" stroke="#000000" stroke-width="1" stroke-opacity="0"></use></g></g><g><use xlink:href="#e2AVtqE4gQ" opacity="1" fill="#ffffff" fill-opacity="1"></use><g><use xlink:href="#e2AVtqE4gQ" opacity="1" fill-opacity="0" stroke="#000000" stroke-width="1" stroke-opacity="0"></use></g></g><g><use xlink:href="#c4xbGUiB5f" opacity="1" fill="#ffffff" fill-opacity="1"></use><g><use xlink:href="#c4xbGUiB5f" opacity="1" fill-opacity="0" stroke="#000000" stroke-width="1" stroke-opacity="0"></use></g></g><g><use xlink:href="#bHXj9Y95K" opacity="1" fill="#ffffff" fill-opacity="1"></use><g><use xlink:href="#bHXj9Y95K" opacity="1" fill-opacity="0" stroke="#000000" stroke-width="1" stroke-opacity="0"></use></g></g><g><use xlink:href="#c69PU7AK9" opacity="1" fill="#ffffff" fill-opacity="1"></use><g><use xlink:href="#c69PU7AK9" opacity="1" fill-opacity="0" stroke="#000000" stroke-width="1" stroke-opacity="0"></use></g></g><g><use xlink:href="#a3FdUGO11L" opacity="1" fill="#ffffff" fill-opacity="1"></use><g><use xlink:href="#a3FdUGO11L" opacity="1" fill-opacity="0" stroke="#000000" stroke-width="1" stroke-opacity="0"></use></g></g><g><use xlink:href="#b1dNh6L1Rm" opacity="1" fill="#ffffff" fill-opacity="1"></use><g><use xlink:href="#b1dNh6L1Rm" opacity="1" fill-opacity="0" stroke="#000000" stroke-width="1" stroke-opacity="0"></use></g></g><g><use xlink:href="#oqUTR7JZS" opacity="1" fill="#ffffff" fill-opacity="1"></use><g><use xlink:href="#oqUTR7JZS" opacity="1" fill-opacity="0" stroke="#000000" stroke-width="1" stroke-opacity="0"></use></g></g><g><use xlink:href="#avaiuryh8" opacity="1" fill="#ffffff" fill-opacity="1"></use><g><use xlink:href="#avaiuryh8" opacity="1" fill-opacity="0" stroke="#000000" stroke-width="1" stroke-opacity="0"></use></g></g><g><use xlink:href="#bCpYEQjes" opacity="1" fill="#ffffff" fill-opacity="1"></use><g><use xlink:href="#bCpYEQjes" opacity="1" fill-opacity="0" stroke="#000000" stroke-width="1" stroke-opacity="0"></use></g></g><g><use xlink:href="#d4NIannU" opacity="1" fill="#ffffff" fill-opacity="1"></use><g><use xlink:href="#d4NIannU" opacity="1" fill-opacity="0" stroke="#000000" stroke-width="1" stroke-opacity="0"></use></g></g><g><use xlink:href="#fQvN4ufTB" opacity="1" fill="#ffffff" fill-opacity="1"></use><g><use xlink:href="#fQvN4ufTB" opacity="1" fill-opacity="0" stroke="#000000" stroke-width="1" stroke-opacity="0"></use></g></g><g><use xlink:href="#ahfmySYb6" opacity="1" fill="#ffffff" fill-opacity="1"></use><g><use xlink:href="#ahfmySYb6" opacity="1" fill-opacity="0" stroke="#000000" stroke-width="1" stroke-opacity="0"></use></g></g><g><use xlink:href="#dUD3YlsES" opacity="1" fill="#ffffff" fill-opacity="1"></use><g><use xlink:href="#dUD3YlsES" opacity="1" fill-opacity="0" stroke="#000000" stroke-width="1" stroke-opacity="0"></use></g></g></g></svg>