<?xml version="1.0" encoding="UTF-8" standalone="no"?>
<!DOCTYPE svg PUBLIC "-//W3C//DTD SVG 1.1//EN" "http://www.w3.org/Graphics/SVG/1.1/DTD/svg11.dtd">
<svg version="1.1" xmlns="http://www.w3.org/2000/svg" xmlns:xlink="http://www.w3.org/1999/xlink" preserveAspectRatio="xMidYMid meet" viewBox="30.99888275524966 -0.9999999999999858 68.00000000000003 77.14" width="64" height="73.14"><defs><path d="M59.43 14.39C59.43 14.65 59.43 15.95 59.43 18.29L73.14 9.14L59.43 0C59.43 2.98 59.43 4.63 59.43 4.96C43.95 7.19 32 20.49 32 36.57C32 46.26 36.34 54.93 43.16 60.8C43.96 60.27 50.37 56 51.17 55.47C45.12 51.35 41.14 44.42 41.14 36.57C41.14 25.56 49.04 16.53 59.43 14.39Z" id="f18y6wmvzY"></path><path d="M76.83 17.67C82.87 21.79 86.86 28.72 86.86 36.57C86.86 47.6 78.98 56.75 68.57 58.88C68.57 58.61 68.57 57.27 68.57 54.86L54.86 64L68.57 73.14C68.57 70.17 68.57 68.53 68.57 68.2C84.05 65.97 96 52.66 96 36.57C96 26.89 91.66 18.21 84.83 12.34C83.23 13.4 77.63 17.14 76.83 17.67Z" id="b1oODVchhW"></path></defs><g><g><use xlink:href="#f18y6wmvzY" opacity="1" fill="#ffffff" fill-opacity="1"></use><g><use xlink:href="#f18y6wmvzY" opacity="1" fill-opacity="0" stroke="#000000" stroke-width="1" stroke-opacity="0"></use></g></g><g><use xlink:href="#b1oODVchhW" opacity="1" fill="#ffffff" fill-opacity="1"></use><g><use xlink:href="#b1oODVchhW" opacity="1" fill-opacity="0" stroke="#000000" stroke-width="1" stroke-opacity="0"></use></g></g></g></svg>