<?xml version="1.0" encoding="UTF-8" standalone="no"?>
<!DOCTYPE svg PUBLIC "-//W3C//DTD SVG 1.1//EN" "http://www.w3.org/Graphics/SVG/1.1/DTD/svg11.dtd">
<svg version="1.1" xmlns="http://www.w3.org/2000/svg" xmlns:xlink="http://www.w3.org/1999/xlink" preserveAspectRatio="xMidYMid meet" viewBox="3.196721311475371 -1 67.99999999999999 68.04999999999998" width="64" height="64.05"><defs><path d="M42.52 0C37.41 0.04 32.66 2.65 29.89 6.95C29.03 6.76 28.16 6.67 27.28 6.67C21.34 6.67 16.17 11.18 14.91 17.3C8.94 17.68 4.2 22.98 4.2 29.44C4.2 36.14 9.31 41.6 15.59 41.6C16.72 41.6 25.75 41.6 26.88 41.6C25.51 49.59 29.3 57.58 36.36 61.57C43.42 65.55 52.22 64.68 58.35 59.38C64.48 54.08 66.62 45.5 63.7 37.93C66.6 35.16 68.22 31.31 68.19 27.3C68.36 20.79 64.03 15.02 57.74 13.35C56.32 5.69 49.89 0 42.52 0ZM28.73 44.8C28.73 35.37 36.37 27.73 45.79 27.73C55.22 27.73 62.86 35.37 62.86 44.8C62.85 54.22 55.21 61.86 45.79 61.87C36.37 61.87 28.73 54.23 28.73 44.8ZM43.85 25.7C36.06 26.49 29.53 31.94 27.36 39.47C26.19 39.47 16.77 39.47 15.59 39.47C10.48 39.47 6.33 34.97 6.33 29.44C6.33 23.91 10.48 19.41 15.59 19.41C15.61 19.41 15.78 19.41 15.8 19.41C16.33 19.41 16.78 19.02 16.86 18.49C17.64 12.97 22.12 8.8 27.28 8.8C28.22 8.8 29.16 8.93 30.06 9.2C30.53 9.34 31.04 9.15 31.29 8.73C33.6 4.7 37.87 2.19 42.52 2.13C49.07 2.13 54.76 7.4 55.76 14.39C55.82 14.85 56.17 15.21 56.63 15.29C62.09 16.26 66.06 21.31 66.06 27.3C66.08 30.47 64.91 33.53 62.77 35.87C59.13 28.93 51.64 24.91 43.85 25.7Z" id="afIy7jsmX"></path><path d="M36.35 43.14C37.16 38.55 41.14 35.21 45.79 35.2C46.38 35.2 46.86 34.72 46.86 34.13C46.86 33.54 46.38 33.07 45.79 33.07C39.87 33.08 34.87 37.5 34.16 43.39C34.01 43.24 32.83 42.06 32.68 41.91C32.26 41.51 31.6 41.51 31.19 41.93C30.78 42.34 30.77 43 31.17 43.42C31.49 43.74 34.05 46.3 34.37 46.62C34.79 47.04 35.47 47.04 35.88 46.62C36.2 46.3 38.76 43.74 39.08 43.42C39.49 43 39.48 42.34 39.07 41.93C38.66 41.51 37.99 41.51 37.57 41.91C37.33 42.16 36.47 43.01 36.35 43.14Z" id="a2BUFKWmCY"></path><path d="M52.51 45.11C52.1 45.53 52.11 46.2 52.52 46.61C52.93 47.02 53.6 47.02 54.01 46.62C54.15 46.48 55.23 45.4 55.37 45.26C55.12 50.38 50.91 54.39 45.79 54.4C45.2 54.4 44.73 54.88 44.73 55.47C44.73 56.06 45.2 56.53 45.79 56.53C52.1 56.52 57.28 51.53 57.51 45.22C57.65 45.36 58.77 46.48 58.91 46.62C59.32 47.02 59.99 47.02 60.4 46.61C60.81 46.2 60.82 45.53 60.41 45.11C60.09 44.79 57.53 42.23 57.21 41.91C56.8 41.5 56.12 41.5 55.71 41.91C55.07 42.55 52.83 44.79 52.51 45.11Z" id="a1OxUJ0bY"></path></defs><g><g><use xlink:href="#afIy7jsmX" opacity="1" fill="#ffffff" fill-opacity="1"></use><g><use xlink:href="#afIy7jsmX" opacity="1" fill-opacity="0" stroke="#000000" stroke-width="1" stroke-opacity="0"></use></g></g><g><use xlink:href="#a2BUFKWmCY" opacity="1" fill="#ffffff" fill-opacity="1"></use><g><use xlink:href="#a2BUFKWmCY" opacity="1" fill-opacity="0" stroke="#000000" stroke-width="1" stroke-opacity="0"></use></g></g><g><use xlink:href="#a1OxUJ0bY" opacity="1" fill="#ffffff" fill-opacity="1"></use><g><use xlink:href="#a1OxUJ0bY" opacity="1" fill-opacity="0" stroke="#000000" stroke-width="1" stroke-opacity="0"></use></g></g></g></svg>